<?xml version="1.0" encoding="utf-8"?>
<!-- Generator: Adobe Illustrator 28.0.0, SVG Export Plug-In . SVG Version: 6.00 Build 0)  -->
<svg version="1.1" id="Capa_1" xmlns="http://www.w3.org/2000/svg" xmlns:xlink="http://www.w3.org/1999/xlink" x="0px" y="0px"
	 viewBox="0 0 665.45 200.83" style="enable-background:new 0 0 665.45 200.83;" xml:space="preserve">
<style type="text/css">
	.st0{fill:#D8D138;}
	.st1{fill:#B92A2A;}
	.st2{fill:#3957C3;}
	.st3{fill:#050505;}
</style>
<path class="st0" d="M291.89-0.69L153.96,137.24L16.03-0.69l0,0C123.76-0.69,184.16-0.69,291.89-0.69L291.89-0.69z"/>
<g>
	<path class="st1" d="M127.59,200.23C125.37,132.55,69.44,78.24,0.39,77.27v122.97H127.59z"/>
</g>
<rect x="203.47" y="48.95" transform="matrix(-0.7071 -0.7071 0.7071 -0.7071 298.8383 417.7619)" class="st2" width="64.93" height="196.09"/>
<rect x="518.66" y="75.47" transform="matrix(6.123234e-17 -1 1 6.123234e-17 371.872 718.9025)" class="st3" width="53.46" height="196.09"/>
<rect x="314.46" y="-11.68" transform="matrix(-0.7071 0.7071 -0.7071 -0.7071 644.0569 -194.4579)" class="st3" width="95.69" height="95.69"/>
<ellipse class="st0" cx="359.75" cy="205.67" rx="71.32" ry="69.7"/>
<path class="st1" d="M507.07-5.97v131.74H379.15v-3.83C429.11,71.99,457.11,43.99,507.07-5.97L507.07-5.97z"/>
<g>
	<path class="st2" d="M531.32,133.86c74.19-2.4,133.71-62.76,134.78-137.28H531.32V133.86z"/>
</g>
</svg>
