<?xml version="1.0" encoding="utf-8"?>
<!-- Generator: Adobe Illustrator 27.4.0, SVG Export Plug-In . SVG Version: 6.00 Build 0)  -->
<svg version="1.1" id="Capa_1" xmlns="http://www.w3.org/2000/svg" xmlns:xlink="http://www.w3.org/1999/xlink" x="0px" y="0px"
	 viewBox="0 0 10 10" style="enable-background:new 0 0 10 10;" xml:space="preserve">
<style type="text/css">
	.st0{fill:#3957C3;}
	.st1{fill-rule:evenodd;clip-rule:evenodd;fill:#FFFFFF;}
</style>
<g>
	<circle class="st0" cx="5" cy="5" r="4.47"/>
	<g>
		<g id="WA_Logo_10_">
			<g>
				<path class="st1" d="M7.15,2.65C6.62,2.11,5.9,1.82,5.14,1.82c-1.56,0-2.84,1.27-2.84,2.84c0,0.5,0.13,0.99,0.38,1.42l-0.4,1.47
					l1.5-0.39C4.2,7.37,4.67,7.49,5.14,7.49h0c1.56,0,2.84-1.27,2.84-2.84C7.98,3.9,7.69,3.18,7.15,2.65z M5.14,7.01L5.14,7.01
					c-0.42,0-0.84-0.11-1.2-0.33L3.86,6.63L2.96,6.87L3.2,6L3.15,5.91C2.91,5.53,2.79,5.1,2.79,4.65c0-1.3,1.06-2.36,2.36-2.36
					c0.63,0,1.22,0.25,1.67,0.69C7.26,3.43,7.5,4.02,7.5,4.65C7.5,5.96,6.44,7.01,5.14,7.01z M6.44,5.25
					C6.37,5.21,6.02,5.04,5.95,5.02C5.89,4.99,5.84,4.98,5.79,5.05C5.75,5.12,5.61,5.28,5.57,5.33C5.53,5.38,5.49,5.38,5.42,5.35
					C5.35,5.31,5.12,5.24,4.85,5C4.64,4.81,4.49,4.58,4.45,4.5s0-0.11,0.03-0.14c0.03-0.03,0.07-0.08,0.11-0.12s0.05-0.07,0.07-0.12
					s0.01-0.09-0.01-0.12C4.64,3.96,4.49,3.61,4.44,3.47C4.38,3.33,4.32,3.35,4.28,3.34c-0.04,0-0.09,0-0.14,0
					c-0.05,0-0.12,0.02-0.19,0.09C3.89,3.5,3.7,3.67,3.7,4.02c0,0.35,0.25,0.69,0.29,0.73C4.03,4.8,4.49,5.52,5.2,5.83
					c0.17,0.07,0.3,0.12,0.4,0.15C5.78,6.03,5.93,6.02,6.05,6c0.14-0.02,0.42-0.17,0.48-0.34s0.06-0.31,0.04-0.34
					C6.56,5.3,6.51,5.28,6.44,5.25z"/>
			</g>
		</g>
	</g>
</g>
</svg>
