<?xml version="1.0" encoding="utf-8"?>
<!-- Generator: Adobe Illustrator 27.4.0, SVG Export Plug-In . SVG Version: 6.00 Build 0)  -->
<svg version="1.1" id="Capa_1" xmlns="http://www.w3.org/2000/svg" xmlns:xlink="http://www.w3.org/1999/xlink" x="0px" y="0px"
	 viewBox="0 0 10 10" style="enable-background:new 0 0 10 10;" xml:space="preserve">
<style type="text/css">
	.st0{fill:#3957C3;}
	.st1{fill:#FDFDFD;}
</style>
<g>
	<circle class="st0" cx="5" cy="5" r="4.47"/>
	<g>
		<g>
			<path class="st1" d="M5.35,4.39c0.07-0.08,0.13-0.17,0.21-0.24c0.23-0.22,0.51-0.33,0.83-0.33c0.18,0,0.35,0.01,0.52,0.06
				C7.29,4,7.52,4.27,7.62,4.65c0.08,0.28,0.1,0.58,0.1,0.87c0,0.62,0,1.24,0,1.85c0,0.06-0.02,0.07-0.07,0.07
				c-0.32,0-0.64,0-0.96,0c-0.06,0-0.07-0.02-0.07-0.07c0-0.59,0-1.18,0-1.76c0-0.15-0.01-0.29-0.05-0.44
				C6.5,4.91,6.31,4.77,6.03,4.79C5.65,4.81,5.46,5,5.41,5.38C5.4,5.47,5.39,5.56,5.39,5.66c0,0.57,0,1.14,0,1.72
				c0,0.06-0.01,0.07-0.07,0.07c-0.32,0-0.64,0-0.96,0c-0.05,0-0.07-0.01-0.07-0.07c0-1.13,0-2.26,0-3.4c0-0.06,0.02-0.07,0.07-0.07
				c0.3,0,0.61,0,0.91,0c0.06,0,0.07,0.02,0.07,0.07C5.34,4.12,5.35,4.25,5.35,4.39z"/>
			<path class="st1" d="M3.6,5.68c0,0.56,0,1.12,0,1.68c0,0.06-0.02,0.08-0.08,0.08c-0.32,0-0.64,0-0.95,0
				c-0.05,0-0.07-0.01-0.07-0.07c0-1.13,0-2.27,0-3.4c0-0.05,0.01-0.06,0.06-0.06c0.32,0,0.65,0,0.97,0c0.06,0,0.07,0.02,0.07,0.08
				C3.6,4.55,3.6,5.12,3.6,5.68z"/>
			<path class="st1" d="M3.69,2.79c0,0.35-0.29,0.64-0.64,0.64c-0.35,0-0.63-0.29-0.64-0.63c0-0.35,0.29-0.64,0.64-0.64
				C3.4,2.16,3.69,2.44,3.69,2.79z"/>
		</g>
	</g>
</g>
</svg>
