<?xml version="1.0" encoding="utf-8"?>
<!-- Generator: Adobe Illustrator 27.4.0, SVG Export Plug-In . SVG Version: 6.00 Build 0)  -->
<svg version="1.1" id="Capa_1" xmlns="http://www.w3.org/2000/svg" xmlns:xlink="http://www.w3.org/1999/xlink" x="0px" y="0px"
	 viewBox="0 0 10 10" style="enable-background:new 0 0 10 10;" xml:space="preserve">
<style type="text/css">
	.st0{fill:#3957C3;}
	.st1{fill:#FFFFFF;}
</style>
<g>
	<circle class="st0" cx="5" cy="5" r="4.47"/>
	<path class="st1" d="M7.86,3.56C7.79,3.31,7.59,3.11,7.33,3.04C6.87,2.91,5,2.91,5,2.91s-1.87,0-2.33,0.12
		C2.41,3.11,2.21,3.31,2.14,3.56C2.02,4.03,2.02,5,2.02,5s0,0.97,0.12,1.44c0.07,0.26,0.27,0.46,0.53,0.53C3.13,7.09,5,7.09,5,7.09
		s1.87,0,2.33-0.12c0.26-0.07,0.46-0.27,0.53-0.53C7.98,5.97,7.98,5,7.98,5S7.98,4.03,7.86,3.56z M4.4,5.89V4.11L5.95,5L4.4,5.89z"
		/>
</g>
</svg>
