<?xml version="1.0" encoding="utf-8"?>
<!-- Generator: Adobe Illustrator 27.4.0, SVG Export Plug-In . SVG Version: 6.00 Build 0)  -->
<svg version="1.1" id="Capa_1" xmlns="http://www.w3.org/2000/svg" xmlns:xlink="http://www.w3.org/1999/xlink" x="0px" y="0px"
	 viewBox="0 0 10 10" style="enable-background:new 0 0 10 10;" xml:space="preserve">
<style type="text/css">
	.st0{fill:#3957C3;}
	.st1{fill:#FFFFFF;}
</style>
<g>
	<path class="st0" d="M9.4,5c0-2.47-2-4.47-4.47-4.47S0.45,2.53,0.45,5c0,2.23,1.64,4.08,3.77,4.42V6.29H3.09V5h1.14V4.01
		c0-1.12,0.67-1.74,1.69-1.74c0.49,0,1,0.09,1,0.09v1.1H6.35c-0.56,0-0.73,0.34-0.73,0.7V5h1.24l-0.2,1.29H5.62v3.13
		C7.76,9.08,9.4,7.23,9.4,5z"/>
	<path class="st1" d="M6.66,6.29L6.86,5H5.62V4.16c0-0.35,0.17-0.7,0.73-0.7h0.56v-1.1c0,0-0.51-0.09-1-0.09
		c-1.02,0-1.69,0.62-1.69,1.74V5H3.09v1.29h1.14v3.13c0.23,0.04,0.46,0.05,0.7,0.05s0.47-0.02,0.7-0.05V6.29H6.66z"/>
</g>
</svg>
