<?xml version="1.0" encoding="utf-8"?>
<!-- Generator: Adobe Illustrator 27.4.0, SVG Export Plug-In . SVG Version: 6.00 Build 0)  -->
<svg version="1.1" id="Capa_1" xmlns="http://www.w3.org/2000/svg" xmlns:xlink="http://www.w3.org/1999/xlink" x="0px" y="0px"
	 viewBox="0 0 10 10" style="enable-background:new 0 0 10 10;" xml:space="preserve">
<style type="text/css">
	.st0{fill:#3957C3;}
	.st1{fill:#FFFFFF;}
</style>
<g>
	<circle class="st0" cx="4.92" cy="5.1" r="4.47"/>
	<g>
		<g>
			<path class="st1" d="M4.92,2.79c0.75,0,0.84,0,1.14,0.02c0.27,0.01,0.42,0.06,0.52,0.1c0.13,0.05,0.23,0.11,0.32,0.21
				c0.1,0.1,0.16,0.19,0.21,0.32c0.04,0.1,0.08,0.25,0.1,0.52c0.01,0.3,0.02,0.39,0.02,1.14s0,0.84-0.02,1.14
				C7.2,6.52,7.16,6.67,7.12,6.76C7.07,6.9,7.01,6.99,6.91,7.09c-0.1,0.1-0.19,0.16-0.32,0.21c-0.1,0.04-0.25,0.08-0.52,0.1
				c-0.3,0.01-0.39,0.02-1.14,0.02c-0.75,0-0.84,0-1.14-0.02C3.51,7.38,3.36,7.34,3.26,7.3C3.13,7.25,3.04,7.19,2.94,7.09
				c-0.1-0.1-0.16-0.19-0.21-0.32c-0.04-0.1-0.08-0.25-0.1-0.52C2.62,5.94,2.61,5.86,2.61,5.1s0-0.84,0.02-1.14
				c0.01-0.27,0.06-0.42,0.1-0.52c0.05-0.13,0.11-0.23,0.21-0.32c0.1-0.1,0.19-0.16,0.32-0.21c0.1-0.04,0.25-0.08,0.52-0.1
				C4.08,2.8,4.17,2.79,4.92,2.79 M4.92,2.29c-0.77,0-0.86,0-1.16,0.02c-0.3,0.01-0.5,0.06-0.68,0.13C2.89,2.51,2.74,2.6,2.58,2.76
				c-0.16,0.16-0.25,0.31-0.32,0.5C2.18,3.44,2.14,3.64,2.12,3.94c-0.01,0.3-0.02,0.4-0.02,1.16c0,0.77,0,0.86,0.02,1.16
				c0.01,0.3,0.06,0.5,0.13,0.68c0.07,0.19,0.17,0.34,0.32,0.5C2.74,7.6,2.89,7.7,3.08,7.77C3.26,7.84,3.46,7.89,3.76,7.9
				c0.3,0.01,0.4,0.02,1.16,0.02c0.77,0,0.86,0,1.16-0.02c0.3-0.01,0.5-0.06,0.68-0.13C6.95,7.7,7.11,7.6,7.27,7.45
				c0.16-0.16,0.25-0.31,0.32-0.5c0.07-0.18,0.12-0.38,0.13-0.68c0.01-0.3,0.02-0.4,0.02-1.16s0-0.86-0.02-1.16
				c-0.01-0.3-0.06-0.5-0.13-0.68c-0.07-0.19-0.17-0.34-0.32-0.5C7.11,2.6,6.95,2.51,6.77,2.43C6.59,2.36,6.38,2.32,6.08,2.3
				C5.78,2.29,5.69,2.29,4.92,2.29L4.92,2.29z"/>
			<path class="st1" d="M4.92,3.66c-0.8,0-1.45,0.65-1.45,1.45s0.65,1.45,1.45,1.45c0.8,0,1.45-0.65,1.45-1.45S5.72,3.66,4.92,3.66z
				 M4.92,6.04c-0.52,0-0.94-0.42-0.94-0.94S4.4,4.16,4.92,4.16S5.86,4.58,5.86,5.1S5.44,6.04,4.92,6.04z"/>
			<circle class="st1" cx="6.43" cy="3.6" r="0.34"/>
		</g>
	</g>
</g>
</svg>
