<?xml version="1.0" encoding="utf-8"?>
<!-- Generator: Adobe Illustrator 27.4.0, SVG Export Plug-In . SVG Version: 6.00 Build 0)  -->
<svg version="1.1" id="Capa_1" xmlns="http://www.w3.org/2000/svg" xmlns:xlink="http://www.w3.org/1999/xlink" x="0px" y="0px"
	 viewBox="0 0 10 10" style="enable-background:new 0 0 10 10;" xml:space="preserve">
<style type="text/css">
	.st0{fill-rule:evenodd;clip-rule:evenodd;fill:#3957C3;}
	.st1{fill:#FFFFFF;}
</style>
<g>
	<circle class="st0" cx="5" cy="5" r="4.47"/>
	<g>
		<g>
			<path class="st1" d="M4.1,7.58c2.19,0,3.38-1.81,3.38-3.38c0-0.05,0-0.1,0-0.15C7.7,3.88,7.91,3.67,8.07,3.43
				C7.85,3.52,7.62,3.59,7.38,3.61c0.25-0.15,0.43-0.38,0.52-0.66C7.68,3.09,7.42,3.19,7.15,3.25C6.93,3.02,6.63,2.87,6.28,2.87
				C5.63,2.87,5.1,3.4,5.1,4.06c0,0.09,0.01,0.18,0.03,0.27C4.14,4.28,3.26,3.81,2.68,3.09c-0.1,0.18-0.16,0.38-0.16,0.6
				c0,0.41,0.21,0.78,0.53,0.99C2.85,4.67,2.67,4.61,2.51,4.53c0,0,0,0.01,0,0.02c0,0.58,0.41,1.06,0.95,1.16
				c-0.1,0.03-0.2,0.04-0.31,0.04C3.07,5.75,3,5.74,2.92,5.73C3.08,6.2,3.51,6.54,4.03,6.55C3.63,6.87,3.11,7.06,2.56,7.06
				c-0.1,0-0.19-0.01-0.28-0.02C2.8,7.38,3.42,7.58,4.1,7.58"/>
		</g>
	</g>
</g>
</svg>
