<?xml version="1.0" encoding="utf-8"?>
<!-- Generator: Adobe Illustrator 28.0.0, SVG Export Plug-In . SVG Version: 6.00 Build 0)  -->
<svg version="1.1" id="Capa_1" xmlns="http://www.w3.org/2000/svg" xmlns:xlink="http://www.w3.org/1999/xlink" x="0px" y="0px"
	 viewBox="0 0 600 122" style="enable-background:new 0 0 600 122;" xml:space="preserve">
<style type="text/css">
	
		.st0{clip-path:url(#SVGID_00000155111537733177371480000010408001493627675288_);fill:none;stroke:#FFFFFF;stroke-width:3.8596;stroke-miterlimit:10;}
	.st1{fill:#FFFFFF;}
</style>
<g>
	<defs>
		<rect id="SVGID_1_" x="0.17" y="0.75" width="120.22" height="120.22"/>
	</defs>
	<clipPath id="SVGID_00000176021337278611312210000004552921735270184103_">
		<use xlink:href="#SVGID_1_"  style="overflow:visible;"/>
	</clipPath>
	
		<line style="clip-path:url(#SVGID_00000176021337278611312210000004552921735270184103_);fill:none;stroke:#FFFFFF;stroke-width:3.8596;stroke-miterlimit:10;" x1="9.53" y1="-2.87" x2="-4.26" y2="10.93"/>
	
		<line style="clip-path:url(#SVGID_00000176021337278611312210000004552921735270184103_);fill:none;stroke:#FFFFFF;stroke-width:3.8596;stroke-miterlimit:10;" x1="9.53" y1="-2.87" x2="-4.26" y2="10.93"/>
	
		<line style="clip-path:url(#SVGID_00000176021337278611312210000004552921735270184103_);fill:none;stroke:#FFFFFF;stroke-width:3.8596;stroke-miterlimit:10;" x1="55.35" y1="-35.39" x2="-33.34" y2="53.3"/>
	
		<line style="clip-path:url(#SVGID_00000176021337278611312210000004552921735270184103_);fill:none;stroke:#FFFFFF;stroke-width:3.8596;stroke-miterlimit:10;" x1="55.35" y1="-35.39" x2="-33.34" y2="53.3"/>
	
		<line style="clip-path:url(#SVGID_00000176021337278611312210000004552921735270184103_);fill:none;stroke:#FFFFFF;stroke-width:3.8596;stroke-miterlimit:10;" x1="63.32" y1="-27.42" x2="-25.37" y2="61.27"/>
	
		<line style="clip-path:url(#SVGID_00000176021337278611312210000004552921735270184103_);fill:none;stroke:#FFFFFF;stroke-width:3.8596;stroke-miterlimit:10;" x1="63.32" y1="-27.42" x2="-25.37" y2="61.27"/>
	
		<line style="clip-path:url(#SVGID_00000176021337278611312210000004552921735270184103_);fill:none;stroke:#FFFFFF;stroke-width:3.8596;stroke-miterlimit:10;" x1="71.29" y1="-19.46" x2="-17.4" y2="69.23"/>
	
		<line style="clip-path:url(#SVGID_00000176021337278611312210000004552921735270184103_);fill:none;stroke:#FFFFFF;stroke-width:3.8596;stroke-miterlimit:10;" x1="71.29" y1="-19.46" x2="-17.4" y2="69.23"/>
	
		<line style="clip-path:url(#SVGID_00000176021337278611312210000004552921735270184103_);fill:none;stroke:#FFFFFF;stroke-width:3.8596;stroke-miterlimit:10;" x1="79.25" y1="-11.49" x2="-9.44" y2="77.2"/>
	
		<line style="clip-path:url(#SVGID_00000176021337278611312210000004552921735270184103_);fill:none;stroke:#FFFFFF;stroke-width:3.8596;stroke-miterlimit:10;" x1="79.25" y1="-11.49" x2="-9.44" y2="77.2"/>
	
		<line style="clip-path:url(#SVGID_00000176021337278611312210000004552921735270184103_);fill:none;stroke:#FFFFFF;stroke-width:3.8596;stroke-miterlimit:10;" x1="87.22" y1="-3.53" x2="-1.47" y2="85.16"/>
	
		<line style="clip-path:url(#SVGID_00000176021337278611312210000004552921735270184103_);fill:none;stroke:#FFFFFF;stroke-width:3.8596;stroke-miterlimit:10;" x1="87.22" y1="-3.53" x2="-18.55" y2="102.25"/>
	
		<line style="clip-path:url(#SVGID_00000176021337278611312210000004552921735270184103_);fill:none;stroke:#FFFFFF;stroke-width:3.8596;stroke-miterlimit:10;" x1="107.91" y1="-8.29" x2="6.49" y2="93.13"/>
	
		<line style="clip-path:url(#SVGID_00000176021337278611312210000004552921735270184103_);fill:none;stroke:#FFFFFF;stroke-width:3.8596;stroke-miterlimit:10;" x1="107.91" y1="-8.29" x2="-24.69" y2="124.31"/>
	
		<line style="clip-path:url(#SVGID_00000176021337278611312210000004552921735270184103_);fill:none;stroke:#FFFFFF;stroke-width:3.8596;stroke-miterlimit:10;" x1="127.04" y1="-11.49" x2="14.46" y2="101.1"/>
	
		<line style="clip-path:url(#SVGID_00000176021337278611312210000004552921735270184103_);fill:none;stroke:#FFFFFF;stroke-width:3.8596;stroke-miterlimit:10;" x1="127.04" y1="-11.49" x2="-13.22" y2="128.77"/>
</g>
<g>
	<path class="st1" d="M134.45,23.92V1.33h14.96v3.94h-10.18v5.38h9.19v3.94h-9.19v9.33H134.45z"/>
	<path class="st1" d="M162.34,16.71V6.98h4.7v16.95h-4.51v-3.08h-0.18c-0.38,0.99-1.02,1.79-1.9,2.39c-0.89,0.6-1.97,0.9-3.24,0.9
		c-1.13,0-2.13-0.26-2.99-0.77c-0.86-0.51-1.53-1.25-2.01-2.2c-0.48-0.95-0.73-2.09-0.73-3.41V6.98h4.7v9.95
		c0.01,1,0.28,1.79,0.81,2.37s1.24,0.87,2.13,0.87c0.57,0,1.1-0.13,1.59-0.39c0.49-0.26,0.89-0.65,1.2-1.16
		C162.2,18.1,162.35,17.47,162.34,16.71z"/>
	<path class="st1" d="M175.49,14.13v9.8h-4.7V6.98h4.48v2.99h0.2c0.38-0.99,1-1.77,1.89-2.34c0.88-0.58,1.95-0.87,3.21-0.87
		c1.18,0,2.2,0.26,3.08,0.77s1.56,1.25,2.04,2.2c0.49,0.95,0.73,2.09,0.73,3.4v10.79h-4.7v-9.95c0.01-1.04-0.26-1.85-0.79-2.43
		c-0.54-0.58-1.28-0.88-2.22-0.88c-0.63,0-1.19,0.14-1.67,0.41c-0.48,0.27-0.86,0.67-1.13,1.19S175.5,13.4,175.49,14.13z"/>
	<path class="st1" d="M196.35,24.2c-1.29,0-2.45-0.33-3.49-1s-1.86-1.65-2.47-2.95c-0.61-1.3-0.91-2.89-0.91-4.78
		c0-1.94,0.31-3.56,0.94-4.85s1.46-2.26,2.5-2.9c1.04-0.64,2.18-0.97,3.43-0.97c0.95,0,1.74,0.16,2.38,0.48s1.15,0.72,1.54,1.19
		c0.39,0.47,0.69,0.94,0.9,1.4h0.14v-8.5H206v22.6h-4.63v-2.71h-0.2c-0.22,0.47-0.53,0.94-0.93,1.4c-0.4,0.46-0.92,0.84-1.56,1.14
		C198.04,24.05,197.27,24.2,196.35,24.2z M197.84,20.46c0.76,0,1.4-0.21,1.93-0.62c0.53-0.42,0.93-1,1.21-1.75
		c0.28-0.75,0.42-1.63,0.42-2.64s-0.14-1.88-0.42-2.63c-0.28-0.74-0.68-1.32-1.21-1.72c-0.53-0.4-1.17-0.61-1.93-0.61
		c-0.77,0-1.42,0.21-1.95,0.63c-0.53,0.42-0.93,1-1.2,1.74c-0.27,0.74-0.41,1.6-0.41,2.58c0,0.99,0.14,1.86,0.41,2.61
		s0.68,1.34,1.2,1.77C196.42,20.25,197.07,20.46,197.84,20.46z"/>
	<path class="st1" d="M214.68,24.24c-1.08,0-2.05-0.19-2.89-0.57c-0.85-0.38-1.51-0.94-2-1.69c-0.49-0.75-0.73-1.68-0.73-2.8
		c0-0.94,0.17-1.73,0.52-2.37s0.82-1.15,1.41-1.54c0.6-0.39,1.27-0.68,2.04-0.88c0.76-0.2,1.56-0.34,2.4-0.42
		c0.99-0.1,1.78-0.2,2.38-0.29c0.6-0.09,1.04-0.23,1.31-0.41c0.27-0.18,0.41-0.46,0.41-0.82v-0.07c0-0.7-0.22-1.24-0.66-1.62
		c-0.44-0.38-1.06-0.57-1.86-0.57c-0.85,0-1.52,0.19-2.02,0.56c-0.5,0.37-0.83,0.84-0.99,1.4l-4.35-0.35
		c0.22-1.03,0.65-1.92,1.3-2.68c0.65-0.75,1.48-1.33,2.51-1.74c1.03-0.41,2.22-0.61,3.57-0.61c0.94,0,1.84,0.11,2.71,0.33
		s1.63,0.56,2.31,1.03c0.67,0.46,1.2,1.06,1.59,1.78c0.39,0.72,0.58,1.59,0.58,2.6v11.43h-4.46v-2.35h-0.13
		c-0.27,0.53-0.64,1-1.09,1.4c-0.46,0.4-1,0.71-1.64,0.94C216.26,24.13,215.52,24.24,214.68,24.24z M216.03,21
		c0.69,0,1.3-0.14,1.83-0.41c0.53-0.28,0.95-0.65,1.25-1.12c0.3-0.47,0.45-1,0.45-1.6v-1.8c-0.15,0.1-0.35,0.18-0.6,0.26
		c-0.25,0.08-0.54,0.15-0.86,0.21c-0.32,0.06-0.63,0.12-0.95,0.17s-0.6,0.09-0.86,0.13c-0.55,0.08-1.03,0.21-1.45,0.39
		c-0.41,0.18-0.73,0.41-0.96,0.71c-0.23,0.3-0.34,0.67-0.34,1.11c0,0.64,0.23,1.13,0.7,1.46S215.31,21,216.03,21z"/>
	<path class="st1" d="M235.53,24.25c-1.74,0-3.23-0.37-4.47-1.11c-1.25-0.74-2.2-1.77-2.87-3.08c-0.67-1.32-1-2.83-1-4.55
		c0-1.74,0.34-3.26,1.01-4.57s1.63-2.34,2.87-3.08s2.72-1.11,4.44-1.11c1.48,0,2.77,0.27,3.88,0.81c1.11,0.54,1.99,1.29,2.64,2.26
		c0.65,0.97,1,2.11,1.07,3.42h-4.44c-0.13-0.85-0.45-1.53-0.99-2.05s-1.23-0.78-2.09-0.78c-0.73,0-1.36,0.2-1.9,0.59
		c-0.54,0.39-0.96,0.97-1.26,1.72c-0.3,0.75-0.45,1.66-0.45,2.73c0,1.08,0.15,2,0.45,2.76c0.3,0.76,0.72,1.33,1.26,1.73
		c0.54,0.4,1.18,0.6,1.91,0.6c0.54,0,1.02-0.11,1.45-0.33c0.43-0.22,0.79-0.54,1.07-0.97c0.28-0.42,0.47-0.93,0.56-1.53h4.44
		c-0.07,1.29-0.42,2.43-1.05,3.42s-1.49,1.75-2.6,2.3S237.04,24.25,235.53,24.25z"/>
	<path class="st1" d="M248.49,4.79c-0.7,0-1.3-0.23-1.79-0.7c-0.5-0.47-0.74-1.03-0.74-1.68c0-0.65,0.25-1.2,0.74-1.67
		s1.09-0.7,1.79-0.7s1.3,0.23,1.79,0.7s0.74,1.02,0.74,1.67c0,0.65-0.25,1.22-0.74,1.68C249.78,4.56,249.19,4.79,248.49,4.79z
		 M246.12,23.92V6.98h4.7v16.95H246.12z"/>
	<path class="st1" d="M262.23,24.25c-1.71,0-3.19-0.37-4.44-1.1c-1.25-0.73-2.21-1.75-2.89-3.07s-1.02-2.84-1.02-4.57
		c0-1.75,0.34-3.28,1.02-4.6s1.64-2.33,2.89-3.07c1.25-0.73,2.73-1.1,4.44-1.1s3.19,0.37,4.44,1.1c1.25,0.73,2.21,1.75,2.89,3.07
		s1.02,2.85,1.02,4.6c0,1.74-0.34,3.26-1.02,4.57s-1.64,2.34-2.89,3.07C265.43,23.89,263.95,24.25,262.23,24.25z M262.26,20.61
		c0.78,0,1.43-0.22,1.95-0.67c0.52-0.44,0.92-1.05,1.19-1.83c0.27-0.77,0.4-1.65,0.4-2.64s-0.13-1.86-0.4-2.64s-0.66-1.38-1.19-1.83
		c-0.52-0.45-1.17-0.67-1.95-0.67c-0.79,0-1.45,0.22-1.98,0.67c-0.53,0.45-0.93,1.06-1.2,1.83s-0.4,1.65-0.4,2.64
		s0.13,1.86,0.4,2.64c0.27,0.77,0.67,1.38,1.2,1.83C260.81,20.39,261.47,20.61,262.26,20.61z M260.55,4.79l2.34-5.02h4.35
		l-3.36,5.02H260.55z"/>
	<path class="st1" d="M278.34,14.13v9.8h-4.7V6.98h4.48v2.99h0.2c0.38-0.99,1-1.77,1.89-2.34c0.88-0.58,1.95-0.87,3.21-0.87
		c1.18,0,2.2,0.26,3.08,0.77s1.56,1.25,2.04,2.2c0.49,0.95,0.73,2.09,0.73,3.4v10.79h-4.7v-9.95c0.01-1.04-0.26-1.85-0.79-2.43
		c-0.54-0.58-1.28-0.88-2.22-0.88c-0.63,0-1.19,0.14-1.67,0.41c-0.48,0.27-0.86,0.67-1.13,1.19S278.35,13.4,278.34,14.13z"/>
	<path class="st1" d="M300.25,1.33h5.89l6.22,15.18h0.26l6.22-15.18h5.89v22.6h-4.63V9.22h-0.19l-5.85,14.6h-3.16l-5.85-14.65h-0.19
		v14.76h-4.63V1.33z"/>
	<path class="st1" d="M333.42,24.24c-1.08,0-2.05-0.19-2.89-0.57c-0.85-0.38-1.51-0.94-2-1.69c-0.49-0.75-0.73-1.68-0.73-2.8
		c0-0.94,0.17-1.73,0.52-2.37s0.82-1.15,1.41-1.54c0.6-0.39,1.27-0.68,2.04-0.88c0.76-0.2,1.56-0.34,2.4-0.42
		c0.99-0.1,1.78-0.2,2.38-0.29c0.6-0.09,1.04-0.23,1.31-0.41c0.27-0.18,0.41-0.46,0.41-0.82v-0.07c0-0.7-0.22-1.24-0.66-1.62
		c-0.44-0.38-1.06-0.57-1.86-0.57c-0.85,0-1.52,0.19-2.02,0.56c-0.5,0.37-0.83,0.84-0.99,1.4l-4.35-0.35
		c0.22-1.03,0.65-1.92,1.3-2.68c0.65-0.75,1.48-1.33,2.51-1.74c1.03-0.41,2.22-0.61,3.57-0.61c0.94,0,1.84,0.11,2.71,0.33
		s1.63,0.56,2.31,1.03c0.67,0.46,1.2,1.06,1.59,1.78c0.39,0.72,0.58,1.59,0.58,2.6v11.43h-4.46v-2.35h-0.13
		c-0.27,0.53-0.64,1-1.09,1.4c-0.46,0.4-1,0.71-1.64,0.94C335,24.13,334.26,24.24,333.42,24.24z M334.77,21
		c0.69,0,1.3-0.14,1.83-0.41c0.53-0.28,0.95-0.65,1.25-1.12c0.3-0.47,0.45-1,0.45-1.6v-1.8c-0.15,0.1-0.35,0.18-0.6,0.26
		c-0.25,0.08-0.54,0.15-0.86,0.21c-0.32,0.06-0.63,0.12-0.95,0.17s-0.6,0.09-0.86,0.13c-0.55,0.08-1.03,0.21-1.45,0.39
		c-0.41,0.18-0.73,0.41-0.96,0.71c-0.23,0.3-0.34,0.67-0.34,1.11c0,0.64,0.23,1.13,0.7,1.46S334.05,21,334.77,21z"/>
	<path class="st1" d="M351.32,1.33v22.6h-4.7V1.33H351.32z"/>
	<path class="st1" d="M355.15,23.92V1.33h4.7v8.5H360c0.21-0.46,0.51-0.92,0.9-1.4c0.39-0.47,0.91-0.87,1.54-1.19
		s1.43-0.48,2.38-0.48c1.24,0,2.38,0.32,3.42,0.97c1.04,0.64,1.88,1.61,2.5,2.9c0.62,1.29,0.94,2.91,0.94,4.85
		c0,1.89-0.3,3.48-0.91,4.78c-0.61,1.3-1.43,2.28-2.47,2.95c-1.04,0.67-2.21,1-3.49,1c-0.91,0-1.69-0.15-2.32-0.45
		c-0.64-0.3-1.16-0.68-1.56-1.14c-0.4-0.46-0.71-0.92-0.93-1.4h-0.21v2.71H355.15z M359.76,15.45c0,1.01,0.14,1.89,0.42,2.64
		c0.28,0.75,0.68,1.33,1.21,1.75s1.17,0.62,1.93,0.62c0.77,0,1.41-0.21,1.94-0.63c0.53-0.42,0.93-1.01,1.21-1.77
		s0.41-1.62,0.41-2.61c0-0.98-0.14-1.84-0.41-2.58c-0.27-0.74-0.67-1.32-1.2-1.74c-0.53-0.42-1.18-0.63-1.95-0.63
		c-0.76,0-1.41,0.2-1.94,0.61c-0.53,0.4-0.93,0.98-1.21,1.72C359.9,13.57,359.76,14.44,359.76,15.45z"/>
	<path class="st1" d="M379.64,24.24c-1.08,0-2.05-0.19-2.89-0.57c-0.85-0.38-1.51-0.94-2-1.69c-0.49-0.75-0.73-1.68-0.73-2.8
		c0-0.94,0.17-1.73,0.52-2.37s0.82-1.15,1.41-1.54c0.6-0.39,1.27-0.68,2.04-0.88c0.76-0.2,1.56-0.34,2.4-0.42
		c0.99-0.1,1.78-0.2,2.38-0.29c0.6-0.09,1.04-0.23,1.31-0.41c0.27-0.18,0.41-0.46,0.41-0.82v-0.07c0-0.7-0.22-1.24-0.66-1.62
		c-0.44-0.38-1.06-0.57-1.86-0.57c-0.85,0-1.52,0.19-2.02,0.56c-0.5,0.37-0.83,0.84-0.99,1.4l-4.35-0.35
		c0.22-1.03,0.65-1.92,1.3-2.68c0.65-0.75,1.48-1.33,2.51-1.74c1.03-0.41,2.22-0.61,3.57-0.61c0.94,0,1.84,0.11,2.71,0.33
		s1.63,0.56,2.31,1.03c0.67,0.46,1.2,1.06,1.59,1.78c0.39,0.72,0.58,1.59,0.58,2.6v11.43h-4.46v-2.35h-0.13
		c-0.27,0.53-0.64,1-1.09,1.4c-0.46,0.4-1,0.71-1.64,0.94C381.22,24.13,380.48,24.24,379.64,24.24z M380.98,21
		c0.69,0,1.3-0.14,1.83-0.41c0.53-0.28,0.95-0.65,1.25-1.12c0.3-0.47,0.45-1,0.45-1.6v-1.8c-0.15,0.1-0.35,0.18-0.6,0.26
		c-0.25,0.08-0.54,0.15-0.86,0.21c-0.32,0.06-0.63,0.12-0.95,0.17s-0.6,0.09-0.86,0.13c-0.55,0.08-1.03,0.21-1.45,0.39
		c-0.41,0.18-0.73,0.41-0.96,0.71c-0.23,0.3-0.34,0.67-0.34,1.11c0,0.64,0.23,1.13,0.7,1.46S380.26,21,380.98,21z"/>
</g>
<g>
	<path class="st1" d="M135.22,45.89h3.27l7.68,18.76h0.26l7.68-18.76h3.27v22.6h-2.56V51.32h-0.22l-7.06,17.17h-2.47L138,51.32
		h-0.22v17.17h-2.56V45.89z"/>
	<path class="st1" d="M173.17,61.56V51.54h2.6v16.95h-2.6v-2.87H173c-0.4,0.86-1.02,1.59-1.85,2.19c-0.84,0.6-1.9,0.9-3.18,0.9
		c-1.06,0-2-0.23-2.82-0.7c-0.82-0.47-1.47-1.17-1.94-2.12c-0.47-0.95-0.71-2.14-0.71-3.58V51.54h2.6v10.59
		c0,1.24,0.35,2.22,1.04,2.96c0.69,0.74,1.58,1.1,2.66,1.1c0.65,0,1.31-0.17,1.98-0.5s1.24-0.84,1.7-1.52
		C172.94,63.49,173.17,62.62,173.17,61.56z"/>
	<path class="st1" d="M192.55,55.34L190.21,56c-0.15-0.39-0.36-0.77-0.65-1.14c-0.28-0.37-0.67-0.68-1.15-0.92
		c-0.49-0.24-1.11-0.36-1.86-0.36c-1.04,0-1.9,0.24-2.59,0.71c-0.69,0.47-1.03,1.08-1.03,1.8c0,0.65,0.24,1.16,0.71,1.53
		c0.47,0.38,1.21,0.69,2.21,0.94l2.52,0.62c1.52,0.37,2.64,0.93,3.39,1.68s1.11,1.72,1.11,2.91c0,0.97-0.28,1.84-0.83,2.6
		c-0.56,0.77-1.33,1.37-2.32,1.81c-0.99,0.44-2.15,0.66-3.46,0.66c-1.73,0-3.16-0.38-4.29-1.13c-1.13-0.75-1.85-1.85-2.15-3.29
		l2.47-0.62c0.24,0.91,0.68,1.6,1.34,2.05s1.52,0.68,2.59,0.68c1.21,0,2.18-0.26,2.9-0.78c0.72-0.52,1.08-1.14,1.08-1.87
		c0-0.59-0.21-1.08-0.62-1.48c-0.41-0.4-1.04-0.7-1.9-0.9l-2.82-0.66c-1.55-0.37-2.69-0.94-3.41-1.72
		c-0.72-0.78-1.09-1.75-1.09-2.92c0-0.96,0.27-1.8,0.81-2.54c0.54-0.74,1.28-1.31,2.22-1.73c0.94-0.42,2-0.63,3.19-0.63
		c1.68,0,3,0.37,3.96,1.1C191.46,53.16,192.14,54.13,192.55,55.34z"/>
	<path class="st1" d="M203.89,68.84c-1.63,0-3.04-0.36-4.22-1.09c-1.18-0.72-2.09-1.74-2.73-3.04s-0.95-2.83-0.95-4.56
		c0-1.74,0.32-3.27,0.95-4.6s1.53-2.36,2.67-3.11c1.14-0.75,2.48-1.12,4.01-1.12c0.88,0,1.75,0.15,2.61,0.44
		c0.86,0.29,1.64,0.77,2.35,1.43s1.27,1.53,1.69,2.61c0.42,1.08,0.63,2.41,0.63,3.99v1.1h-13.06v-2.25h10.42
		c0-0.96-0.19-1.81-0.57-2.56c-0.38-0.75-0.92-1.34-1.61-1.78c-0.69-0.43-1.51-0.65-2.45-0.65c-1.04,0-1.93,0.26-2.69,0.77
		s-1.33,1.17-1.74,1.99c-0.4,0.82-0.61,1.69-0.61,2.63v1.5c0,1.28,0.22,2.36,0.67,3.25c0.44,0.89,1.06,1.56,1.86,2.02
		c0.79,0.46,1.72,0.69,2.77,0.69c0.68,0,1.3-0.1,1.86-0.29c0.56-0.19,1.04-0.49,1.44-0.88s0.72-0.88,0.94-1.47l2.52,0.71
		c-0.26,0.85-0.71,1.6-1.33,2.25c-0.63,0.64-1.4,1.14-2.32,1.5C206.07,68.66,205.04,68.84,203.89,68.84z"/>
	<path class="st1" d="M221.76,68.84c-1.53,0-2.87-0.36-4.02-1.09c-1.15-0.73-2.05-1.75-2.69-3.06s-0.97-2.84-0.97-4.59
		c0-1.77,0.32-3.31,0.97-4.62s1.54-2.34,2.69-3.07c1.15-0.73,2.49-1.09,4.02-1.09c1.53,0,2.87,0.36,4.02,1.09
		c1.15,0.73,2.05,1.75,2.69,3.07c0.64,1.32,0.97,2.86,0.97,4.62c0,1.75-0.32,3.28-0.97,4.59c-0.64,1.31-1.54,2.33-2.69,3.06
		C224.63,68.48,223.29,68.84,221.76,68.84z M221.76,66.5c1.16,0,2.12-0.3,2.87-0.89c0.75-0.6,1.31-1.38,1.67-2.35
		c0.36-0.97,0.54-2.02,0.54-3.16s-0.18-2.19-0.54-3.17c-0.36-0.98-0.92-1.77-1.67-2.37c-0.75-0.6-1.71-0.9-2.87-0.9
		s-2.12,0.3-2.87,0.9c-0.75,0.6-1.31,1.39-1.67,2.37c-0.36,0.98-0.54,2.03-0.54,3.17s0.18,2.18,0.54,3.16
		c0.36,0.97,0.92,1.75,1.67,2.35C219.65,66.21,220.6,66.5,221.76,66.5z"/>
	<path class="st1" d="M248.55,68.84c-1.41,0-2.66-0.36-3.74-1.08c-1.08-0.72-1.93-1.73-2.54-3.05c-0.61-1.31-0.92-2.87-0.92-4.66
		c0-1.78,0.31-3.32,0.92-4.63c0.61-1.31,1.46-2.32,2.55-3.03s2.35-1.07,3.77-1.07c1.1,0,1.98,0.18,2.62,0.55
		c0.64,0.36,1.14,0.78,1.48,1.24c0.34,0.46,0.61,0.84,0.8,1.13h0.22v-8.34h2.6v22.6h-2.52v-2.6h-0.31c-0.19,0.31-0.46,0.7-0.82,1.16
		c-0.35,0.47-0.86,0.88-1.51,1.25C250.51,68.66,249.64,68.84,248.55,68.84z M248.91,66.5c1.04,0,1.93-0.27,2.65-0.82
		c0.72-0.55,1.27-1.31,1.64-2.28s0.56-2.1,0.56-3.38c0-1.27-0.18-2.37-0.55-3.33s-0.91-1.7-1.63-2.23s-1.61-0.8-2.67-0.8
		c-1.1,0-2.02,0.28-2.75,0.84c-0.73,0.56-1.28,1.32-1.64,2.28c-0.36,0.96-0.55,2.04-0.55,3.23c0,1.21,0.19,2.3,0.56,3.28
		c0.37,0.98,0.92,1.76,1.65,2.34S247.82,66.5,248.91,66.5z"/>
	<path class="st1" d="M268.54,68.84c-1.63,0-3.04-0.36-4.22-1.09c-1.18-0.72-2.09-1.74-2.73-3.04s-0.95-2.83-0.95-4.56
		c0-1.74,0.32-3.27,0.95-4.6s1.53-2.36,2.67-3.11c1.14-0.75,2.48-1.12,4.01-1.12c0.88,0,1.75,0.15,2.61,0.44
		c0.86,0.29,1.64,0.77,2.35,1.43s1.27,1.53,1.69,2.61c0.42,1.08,0.63,2.41,0.63,3.99v1.1H262.5v-2.25h10.42
		c0-0.96-0.19-1.81-0.57-2.56c-0.38-0.75-0.92-1.34-1.61-1.78c-0.69-0.43-1.51-0.65-2.45-0.65c-1.04,0-1.93,0.26-2.69,0.77
		s-1.33,1.17-1.74,1.99c-0.4,0.82-0.61,1.69-0.61,2.63v1.5c0,1.28,0.22,2.36,0.67,3.25c0.44,0.89,1.06,1.56,1.86,2.02
		c0.79,0.46,1.72,0.69,2.77,0.69c0.68,0,1.3-0.1,1.86-0.29c0.56-0.19,1.04-0.49,1.44-0.88s0.72-0.88,0.94-1.47l2.52,0.71
		c-0.26,0.85-0.71,1.6-1.33,2.25c-0.63,0.64-1.4,1.14-2.32,1.5C270.73,68.66,269.69,68.84,268.54,68.84z"/>
	<path class="st1" d="M289.55,68.49h-2.87l8.3-22.6h2.82l8.3,22.6h-2.87l-6.75-19.02h-0.18L289.55,68.49z M290.61,59.66h11.56v2.43
		h-11.56V59.66z"/>
	<path class="st1" d="M309.28,68.49V51.54h2.52v2.56h0.18c0.31-0.84,0.87-1.52,1.68-2.04c0.81-0.52,1.72-0.78,2.74-0.78
		c0.19,0,0.43,0,0.72,0.01c0.29,0.01,0.5,0.02,0.65,0.03v2.65c-0.09-0.02-0.29-0.06-0.6-0.1s-0.64-0.07-0.99-0.07
		c-0.82,0-1.56,0.17-2.2,0.51c-0.64,0.34-1.15,0.81-1.52,1.41c-0.37,0.6-0.56,1.28-0.56,2.05v10.72H309.28z"/>
	<path class="st1" d="M329.27,51.54v2.21h-8.78v-2.21H329.27z M323.05,47.48h2.6v16.15c0,0.74,0.11,1.29,0.33,1.65
		c0.22,0.36,0.5,0.61,0.84,0.73c0.34,0.12,0.7,0.18,1.09,0.18c0.29,0,0.52-0.02,0.71-0.05c0.18-0.03,0.33-0.06,0.44-0.08l0.53,2.34
		c-0.18,0.07-0.42,0.13-0.74,0.2c-0.32,0.07-0.72,0.1-1.2,0.1c-0.74,0-1.45-0.16-2.16-0.47c-0.7-0.32-1.28-0.8-1.74-1.45
		c-0.46-0.65-0.69-1.46-0.69-2.45V47.48z"/>
	<path class="st1" d="M340.13,68.84c-1.63,0-3.04-0.36-4.22-1.09c-1.18-0.72-2.09-1.74-2.73-3.04s-0.95-2.83-0.95-4.56
		c0-1.74,0.32-3.27,0.95-4.6s1.53-2.36,2.67-3.11c1.14-0.75,2.48-1.12,4.01-1.12c0.88,0,1.75,0.15,2.61,0.44
		c0.86,0.29,1.64,0.77,2.35,1.43s1.27,1.53,1.69,2.61c0.42,1.08,0.63,2.41,0.63,3.99v1.1h-13.06v-2.25h10.42
		c0-0.96-0.19-1.81-0.57-2.56c-0.38-0.75-0.92-1.34-1.61-1.78c-0.69-0.43-1.51-0.65-2.45-0.65c-1.04,0-1.93,0.26-2.69,0.77
		s-1.33,1.17-1.74,1.99c-0.4,0.82-0.61,1.69-0.61,2.63v1.5c0,1.28,0.22,2.36,0.67,3.25c0.44,0.89,1.06,1.56,1.86,2.02
		c0.79,0.46,1.72,0.69,2.77,0.69c0.68,0,1.3-0.1,1.86-0.29c0.56-0.19,1.04-0.49,1.44-0.88s0.72-0.88,0.94-1.47l2.52,0.71
		c-0.26,0.85-0.71,1.6-1.33,2.25c-0.63,0.64-1.4,1.14-2.32,1.5C342.31,68.66,341.28,68.84,340.13,68.84z"/>
	<path class="st1" d="M360.21,68.49v-22.6h2.74v20.17h10.5v2.43H360.21z"/>
	<path class="st1" d="M382.32,68.89c-1.07,0-2.05-0.2-2.92-0.61s-1.57-1-2.08-1.78c-0.52-0.78-0.77-1.72-0.77-2.82
		c0-0.97,0.19-1.76,0.57-2.37c0.38-0.61,0.89-1.08,1.53-1.43c0.64-0.35,1.35-0.6,2.12-0.78c0.78-0.17,1.56-0.31,2.34-0.41
		c1.03-0.13,1.87-0.23,2.51-0.3s1.11-0.19,1.41-0.36c0.3-0.17,0.45-0.46,0.45-0.88v-0.09c0-1.09-0.3-1.93-0.89-2.54
		c-0.59-0.6-1.49-0.9-2.69-0.9c-1.24,0-2.22,0.27-2.92,0.82c-0.71,0.54-1.2,1.13-1.49,1.74l-2.47-0.88
		c0.44-1.03,1.03-1.83,1.77-2.41c0.74-0.58,1.55-0.98,2.43-1.21c0.88-0.23,1.75-0.35,2.6-0.35c0.54,0,1.17,0.06,1.88,0.19
		c0.71,0.13,1.4,0.39,2.06,0.79c0.67,0.4,1.22,1,1.66,1.8c0.44,0.8,0.66,1.88,0.66,3.22v11.17h-2.6v-2.29h-0.13
		c-0.18,0.37-0.47,0.76-0.88,1.18c-0.41,0.42-0.96,0.78-1.64,1.07C384.14,68.74,383.31,68.89,382.32,68.89z M382.72,66.55
		c1.03,0,1.9-0.2,2.61-0.61c0.71-0.4,1.25-0.93,1.61-1.57c0.36-0.64,0.55-1.31,0.55-2.02v-2.38c-0.11,0.13-0.35,0.25-0.72,0.36
		c-0.37,0.11-0.8,0.2-1.28,0.28s-0.95,0.14-1.4,0.2c-0.45,0.06-0.82,0.1-1.1,0.14c-0.68,0.09-1.31,0.23-1.89,0.42
		c-0.58,0.19-1.06,0.49-1.41,0.87c-0.36,0.39-0.54,0.91-0.54,1.57c0,0.9,0.34,1.59,1.01,2.05
		C380.83,66.32,381.68,66.55,382.72,66.55z"/>
	<path class="st1" d="M402.22,51.54v2.21h-8.78v-2.21H402.22z M396,47.48h2.6v16.15c0,0.74,0.11,1.29,0.33,1.65
		c0.22,0.36,0.5,0.61,0.84,0.73c0.34,0.12,0.7,0.18,1.09,0.18c0.29,0,0.52-0.02,0.71-0.05c0.18-0.03,0.33-0.06,0.44-0.08l0.53,2.34
		c-0.18,0.07-0.42,0.13-0.74,0.2c-0.32,0.07-0.72,0.1-1.2,0.1c-0.74,0-1.45-0.16-2.16-0.47c-0.7-0.32-1.28-0.8-1.74-1.45
		c-0.46-0.65-0.69-1.46-0.69-2.45V47.48z"/>
	<path class="st1" d="M407.48,48.72c-0.51,0-0.94-0.17-1.31-0.52c-0.36-0.35-0.55-0.76-0.55-1.25s0.18-0.9,0.55-1.25
		c0.36-0.35,0.8-0.52,1.31-0.52c0.51,0,0.94,0.17,1.31,0.52c0.36,0.35,0.55,0.76,0.55,1.25s-0.18,0.9-0.55,1.25
		C408.42,48.54,407.98,48.72,407.48,48.72z M406.15,68.49V51.54h2.6v16.95H406.15z"/>
	<path class="st1" d="M416.13,58.29v10.19h-2.6V51.54h2.52v2.65h0.22c0.4-0.86,1-1.55,1.81-2.08c0.81-0.53,1.85-0.79,3.13-0.79
		c1.15,0,2.15,0.23,3.01,0.7c0.86,0.47,1.53,1.17,2.01,2.12c0.48,0.95,0.72,2.14,0.72,3.58v10.77h-2.6V57.9
		c0-1.33-0.35-2.37-1.04-3.12s-1.64-1.12-2.85-1.12c-0.83,0-1.57,0.18-2.22,0.54s-1.16,0.89-1.54,1.58S416.13,57.31,416.13,58.29z"
		/>
	<path class="st1" d="M438.59,68.84c-1.53,0-2.87-0.36-4.02-1.09c-1.15-0.73-2.05-1.75-2.69-3.06s-0.97-2.84-0.97-4.59
		c0-1.77,0.32-3.31,0.97-4.62s1.54-2.34,2.69-3.07c1.15-0.73,2.49-1.09,4.02-1.09c1.53,0,2.87,0.36,4.02,1.09
		c1.15,0.73,2.05,1.75,2.69,3.07c0.64,1.32,0.97,2.86,0.97,4.62c0,1.75-0.32,3.28-0.97,4.59c-0.64,1.31-1.54,2.33-2.69,3.06
		C441.46,68.48,440.12,68.84,438.59,68.84z M438.59,66.5c1.16,0,2.12-0.3,2.87-0.89c0.75-0.6,1.31-1.38,1.67-2.35
		c0.36-0.97,0.54-2.02,0.54-3.16s-0.18-2.19-0.54-3.17c-0.36-0.98-0.92-1.77-1.67-2.37c-0.75-0.6-1.71-0.9-2.87-0.9
		s-2.12,0.3-2.87,0.9c-0.75,0.6-1.31,1.39-1.67,2.37c-0.36,0.98-0.54,2.03-0.54,3.17s0.18,2.18,0.54,3.16
		c0.36,0.97,0.92,1.75,1.67,2.35C436.47,66.21,437.43,66.5,438.59,66.5z"/>
	<path class="st1" d="M455.23,68.89c-1.07,0-2.05-0.2-2.92-0.61s-1.57-1-2.08-1.78c-0.52-0.78-0.77-1.72-0.77-2.82
		c0-0.97,0.19-1.76,0.57-2.37c0.38-0.61,0.89-1.08,1.53-1.43c0.64-0.35,1.35-0.6,2.12-0.78c0.78-0.17,1.56-0.31,2.34-0.41
		c1.03-0.13,1.87-0.23,2.51-0.3s1.11-0.19,1.41-0.36c0.3-0.17,0.45-0.46,0.45-0.88v-0.09c0-1.09-0.3-1.93-0.89-2.54
		c-0.59-0.6-1.49-0.9-2.69-0.9c-1.24,0-2.22,0.27-2.92,0.82c-0.71,0.54-1.2,1.13-1.49,1.74l-2.47-0.88
		c0.44-1.03,1.03-1.83,1.77-2.41c0.74-0.58,1.55-0.98,2.43-1.21c0.88-0.23,1.75-0.35,2.6-0.35c0.54,0,1.17,0.06,1.88,0.19
		c0.71,0.13,1.4,0.39,2.06,0.79c0.67,0.4,1.22,1,1.66,1.8c0.44,0.8,0.66,1.88,0.66,3.22v11.17h-2.6v-2.29h-0.13
		c-0.18,0.37-0.47,0.76-0.88,1.18c-0.41,0.42-0.96,0.78-1.64,1.07C457.05,68.74,456.21,68.89,455.23,68.89z M455.63,66.55
		c1.03,0,1.9-0.2,2.61-0.61c0.71-0.4,1.25-0.93,1.61-1.57c0.36-0.64,0.55-1.31,0.55-2.02v-2.38c-0.11,0.13-0.35,0.25-0.72,0.36
		c-0.37,0.11-0.8,0.2-1.28,0.28s-0.95,0.14-1.4,0.2c-0.45,0.06-0.82,0.1-1.1,0.14c-0.68,0.09-1.31,0.23-1.89,0.42
		c-0.58,0.19-1.06,0.49-1.41,0.87c-0.36,0.39-0.54,0.91-0.54,1.57c0,0.9,0.34,1.59,1.01,2.05
		C453.73,66.32,454.59,66.55,455.63,66.55z"/>
	<path class="st1" d="M467.76,68.49V51.54h2.52v2.65h0.22c0.35-0.9,0.92-1.61,1.71-2.11s1.73-0.76,2.84-0.76
		c1.12,0,2.05,0.25,2.8,0.76c0.75,0.5,1.33,1.21,1.75,2.11h0.18c0.43-0.88,1.08-1.57,1.95-2.09c0.87-0.52,1.91-0.78,3.12-0.78
		c1.52,0,2.75,0.47,3.72,1.42c0.96,0.95,1.45,2.41,1.45,4.41v11.34h-2.6V57.15c0-1.25-0.34-2.14-1.03-2.68
		c-0.68-0.54-1.49-0.81-2.42-0.81c-1.19,0-2.11,0.36-2.77,1.08c-0.65,0.72-0.98,1.62-0.98,2.72v11.03h-2.65V56.88
		c0-0.96-0.31-1.74-0.94-2.33c-0.63-0.59-1.43-0.89-2.42-0.89c-0.68,0-1.31,0.18-1.89,0.54c-0.58,0.36-1.06,0.86-1.41,1.5
		c-0.36,0.64-0.53,1.37-0.53,2.2v10.59H467.76z"/>
	<path class="st1" d="M501.88,68.84c-1.63,0-3.04-0.36-4.22-1.09c-1.18-0.72-2.09-1.74-2.72-3.04s-0.95-2.83-0.95-4.56
		c0-1.74,0.32-3.27,0.95-4.6s1.53-2.36,2.67-3.11s2.48-1.12,4.01-1.12c0.88,0,1.76,0.15,2.62,0.44c0.86,0.29,1.64,0.77,2.35,1.43
		c0.71,0.66,1.27,1.53,1.69,2.61c0.42,1.08,0.63,2.41,0.63,3.99v1.1h-13.06v-2.25h10.42c0-0.96-0.19-1.81-0.57-2.56
		c-0.38-0.75-0.92-1.34-1.61-1.78s-1.51-0.65-2.46-0.65c-1.04,0-1.93,0.26-2.69,0.77s-1.33,1.17-1.74,1.99
		c-0.4,0.82-0.61,1.69-0.61,2.63v1.5c0,1.28,0.22,2.36,0.67,3.25c0.45,0.89,1.06,1.56,1.86,2.02c0.79,0.46,1.72,0.69,2.77,0.69
		c0.68,0,1.3-0.1,1.86-0.29c0.55-0.19,1.04-0.49,1.44-0.88s0.72-0.88,0.94-1.47l2.52,0.71c-0.26,0.85-0.71,1.6-1.33,2.25
		s-1.4,1.14-2.32,1.5C504.06,68.66,503.02,68.84,501.88,68.84z"/>
	<path class="st1" d="M512.87,68.49V51.54h2.52v2.56h0.18c0.31-0.84,0.87-1.52,1.68-2.04c0.81-0.52,1.72-0.78,2.74-0.78
		c0.19,0,0.43,0,0.72,0.01s0.5,0.02,0.65,0.03v2.65c-0.09-0.02-0.29-0.06-0.6-0.1c-0.31-0.05-0.64-0.07-0.99-0.07
		c-0.82,0-1.56,0.17-2.2,0.51c-0.64,0.34-1.15,0.81-1.52,1.41c-0.37,0.6-0.56,1.28-0.56,2.05v10.72H512.87z"/>
	<path class="st1" d="M525.75,48.72c-0.51,0-0.94-0.17-1.31-0.52c-0.36-0.35-0.55-0.76-0.55-1.25s0.18-0.9,0.55-1.25
		c0.36-0.35,0.8-0.52,1.31-0.52s0.94,0.17,1.31,0.52c0.36,0.35,0.55,0.76,0.55,1.25s-0.18,0.9-0.55,1.25
		C526.7,48.54,526.26,48.72,525.75,48.72z M524.43,68.49V51.54h2.6v16.95H524.43z"/>
	<path class="st1" d="M538.68,68.84c-1.59,0-2.96-0.38-4.1-1.13c-1.15-0.75-2.03-1.78-2.65-3.1C531.31,63.3,531,61.8,531,60.1
		c0-1.72,0.32-3.24,0.95-4.56c0.64-1.32,1.53-2.35,2.67-3.1c1.14-0.75,2.48-1.12,4.01-1.12c1.19,0,2.27,0.22,3.22,0.66
		s1.74,1.06,2.35,1.85s0.99,1.72,1.14,2.78h-2.6c-0.2-0.77-0.64-1.46-1.32-2.06s-1.59-0.9-2.74-0.9c-1.01,0-1.9,0.26-2.66,0.79
		s-1.35,1.27-1.78,2.22s-0.63,2.07-0.63,3.35c0,1.31,0.21,2.45,0.62,3.42c0.42,0.97,1,1.73,1.76,2.26c0.76,0.54,1.66,0.81,2.69,0.81
		c0.68,0,1.29-0.12,1.84-0.35s1.02-0.57,1.4-1.02s0.65-0.97,0.82-1.59h2.6c-0.15,1-0.51,1.9-1.09,2.7c-0.58,0.8-1.34,1.43-2.28,1.9
		C541.03,68.61,539.93,68.84,538.68,68.84z"/>
	<path class="st1" d="M554.13,68.89c-1.07,0-2.05-0.2-2.92-0.61s-1.57-1-2.08-1.78c-0.51-0.78-0.77-1.72-0.77-2.82
		c0-0.97,0.19-1.76,0.57-2.37c0.38-0.61,0.89-1.08,1.53-1.43s1.35-0.6,2.12-0.78c0.78-0.17,1.56-0.31,2.34-0.41
		c1.03-0.13,1.87-0.23,2.51-0.3s1.11-0.19,1.41-0.36c0.3-0.17,0.45-0.46,0.45-0.88v-0.09c0-1.09-0.3-1.93-0.89-2.54
		s-1.49-0.9-2.69-0.9c-1.24,0-2.22,0.27-2.92,0.82c-0.71,0.54-1.2,1.13-1.49,1.74l-2.47-0.88c0.44-1.03,1.03-1.83,1.77-2.41
		c0.74-0.58,1.55-0.98,2.43-1.21c0.88-0.23,1.75-0.35,2.6-0.35c0.54,0,1.17,0.06,1.88,0.19c0.71,0.13,1.4,0.39,2.06,0.79
		c0.67,0.4,1.22,1,1.66,1.8c0.44,0.8,0.66,1.88,0.66,3.22v11.17h-2.6v-2.29h-0.13c-0.18,0.37-0.47,0.76-0.88,1.18
		c-0.41,0.42-0.96,0.78-1.64,1.07C555.95,68.74,555.12,68.89,554.13,68.89z M554.53,66.55c1.03,0,1.9-0.2,2.61-0.61
		c0.71-0.4,1.25-0.93,1.61-1.57c0.36-0.64,0.55-1.31,0.55-2.02v-2.38c-0.11,0.13-0.35,0.25-0.72,0.36c-0.37,0.11-0.8,0.2-1.28,0.28
		s-0.95,0.14-1.4,0.2s-0.82,0.1-1.1,0.14c-0.68,0.09-1.31,0.23-1.89,0.42c-0.58,0.19-1.05,0.49-1.41,0.87
		c-0.36,0.39-0.54,0.91-0.54,1.57c0,0.9,0.34,1.59,1.01,2.05C552.63,66.32,553.49,66.55,554.53,66.55z"/>
	<path class="st1" d="M569.27,58.29v10.19h-2.6V51.54h2.52v2.65h0.22c0.4-0.86,1-1.55,1.81-2.08c0.81-0.53,1.85-0.79,3.13-0.79
		c1.15,0,2.15,0.23,3.01,0.7c0.86,0.47,1.53,1.17,2.01,2.12c0.48,0.95,0.72,2.14,0.72,3.58v10.77h-2.6V57.9
		c0-1.33-0.35-2.37-1.04-3.12s-1.64-1.12-2.85-1.12c-0.83,0-1.57,0.18-2.22,0.54s-1.16,0.89-1.54,1.58S569.27,57.31,569.27,58.29z"
		/>
	<path class="st1" d="M591.73,68.84c-1.53,0-2.87-0.36-4.02-1.09s-2.05-1.75-2.69-3.06c-0.64-1.31-0.97-2.84-0.97-4.59
		c0-1.77,0.32-3.31,0.97-4.62c0.64-1.32,1.54-2.34,2.69-3.07s2.49-1.09,4.02-1.09c1.53,0,2.87,0.36,4.02,1.09
		c1.15,0.73,2.05,1.75,2.69,3.07s0.97,2.86,0.97,4.62c0,1.75-0.32,3.28-0.97,4.59s-1.54,2.33-2.69,3.06
		C594.6,68.48,593.26,68.84,591.73,68.84z M591.73,66.5c1.16,0,2.12-0.3,2.87-0.89c0.75-0.6,1.31-1.38,1.67-2.35
		c0.36-0.97,0.54-2.02,0.54-3.16s-0.18-2.19-0.54-3.17c-0.36-0.98-0.92-1.77-1.67-2.37c-0.75-0.6-1.71-0.9-2.87-0.9
		s-2.12,0.3-2.87,0.9c-0.75,0.6-1.31,1.39-1.67,2.37c-0.36,0.98-0.54,2.03-0.54,3.17s0.18,2.18,0.54,3.16
		c0.36,0.97,0.92,1.75,1.67,2.35C589.61,66.21,590.57,66.5,591.73,66.5z"/>
	<path class="st1" d="M141.27,106.13c-1.41,0-2.66-0.36-3.74-1.08c-1.08-0.72-1.93-1.73-2.54-3.05c-0.61-1.31-0.92-2.87-0.92-4.66
		c0-1.78,0.31-3.32,0.92-4.63c0.61-1.31,1.46-2.32,2.55-3.03s2.35-1.07,3.77-1.07c1.1,0,1.98,0.18,2.62,0.55
		c0.64,0.36,1.14,0.78,1.48,1.24c0.34,0.46,0.61,0.84,0.8,1.13h0.22v-8.34h2.6v22.6h-2.52v-2.6h-0.31c-0.19,0.31-0.46,0.7-0.82,1.16
		c-0.35,0.47-0.86,0.88-1.51,1.25C143.23,105.94,142.35,106.13,141.27,106.13z M141.62,103.79c1.04,0,1.93-0.27,2.65-0.82
		c0.72-0.55,1.27-1.31,1.64-2.28s0.56-2.1,0.56-3.38c0-1.27-0.18-2.37-0.55-3.33s-0.91-1.7-1.63-2.23s-1.61-0.8-2.67-0.8
		c-1.1,0-2.02,0.28-2.75,0.84c-0.73,0.56-1.28,1.32-1.64,2.28c-0.36,0.96-0.55,2.04-0.55,3.23c0,1.21,0.19,2.3,0.56,3.28
		c0.37,0.98,0.92,1.76,1.65,2.34S140.53,103.79,141.62,103.79z"/>
	<path class="st1" d="M161.26,106.13c-1.63,0-3.04-0.36-4.22-1.09c-1.18-0.72-2.09-1.74-2.73-3.04s-0.95-2.83-0.95-4.56
		c0-1.74,0.32-3.27,0.95-4.6s1.53-2.36,2.67-3.11c1.14-0.75,2.48-1.12,4.01-1.12c0.88,0,1.75,0.15,2.61,0.44
		c0.86,0.29,1.64,0.77,2.35,1.43s1.27,1.53,1.69,2.61c0.42,1.08,0.63,2.41,0.63,3.99v1.1h-13.06v-2.25h10.42
		c0-0.96-0.19-1.81-0.57-2.56c-0.38-0.75-0.92-1.34-1.61-1.78c-0.69-0.43-1.51-0.65-2.45-0.65c-1.04,0-1.93,0.26-2.69,0.77
		s-1.33,1.17-1.74,1.99c-0.4,0.82-0.61,1.69-0.61,2.63v1.5c0,1.28,0.22,2.36,0.67,3.25c0.44,0.89,1.06,1.56,1.86,2.02
		c0.79,0.46,1.72,0.69,2.77,0.69c0.68,0,1.3-0.1,1.86-0.29c0.56-0.19,1.04-0.49,1.44-0.88s0.72-0.88,0.94-1.47l2.52,0.71
		c-0.26,0.85-0.71,1.6-1.33,2.25c-0.63,0.64-1.4,1.14-2.32,1.5C163.44,105.95,162.4,106.13,161.26,106.13z"/>
	<path class="st1" d="M181.34,105.77v-22.6h7.9c1.57,0,2.87,0.27,3.89,0.81c1.02,0.54,1.78,1.27,2.28,2.17
		c0.5,0.91,0.75,1.91,0.75,3.02c0,0.97-0.17,1.77-0.51,2.41c-0.34,0.63-0.79,1.13-1.35,1.5c-0.56,0.37-1.16,0.64-1.8,0.82v0.22
		c0.69,0.04,1.39,0.29,2.09,0.73c0.7,0.44,1.28,1.07,1.75,1.9s0.71,1.83,0.71,3.02c0,1.13-0.26,2.15-0.77,3.06
		c-0.51,0.9-1.33,1.62-2.44,2.15c-1.11,0.53-2.56,0.79-4.34,0.79H181.34z M184.07,93.11h5.08c0.82,0,1.57-0.16,2.23-0.49
		c0.67-0.32,1.2-0.78,1.59-1.37c0.39-0.59,0.59-1.28,0.59-2.07c0-0.99-0.35-1.84-1.04-2.53c-0.69-0.69-1.79-1.04-3.29-1.04h-5.16
		V93.11z M184.07,103.35h5.43c1.79,0,3.06-0.35,3.81-1.04c0.75-0.69,1.13-1.54,1.13-2.53c0-0.77-0.19-1.47-0.58-2.12
		c-0.39-0.65-0.95-1.17-1.67-1.57c-0.72-0.39-1.57-0.59-2.56-0.59h-5.56V103.35z"/>
	<path class="st1" d="M211.88,98.84V88.83h2.6v16.95h-2.6v-2.87h-0.18c-0.4,0.86-1.02,1.59-1.85,2.19c-0.84,0.6-1.9,0.9-3.18,0.9
		c-1.06,0-2-0.23-2.82-0.7c-0.82-0.47-1.47-1.17-1.94-2.12c-0.47-0.95-0.71-2.14-0.71-3.58V88.83h2.6v10.59
		c0,1.24,0.35,2.22,1.04,2.96c0.69,0.74,1.58,1.1,2.66,1.1c0.65,0,1.31-0.17,1.98-0.5s1.24-0.84,1.7-1.52
		C211.65,100.78,211.88,99.9,211.88,98.84z"/>
	<path class="st1" d="M226.35,106.13c-1.63,0-3.04-0.36-4.22-1.09c-1.18-0.72-2.09-1.74-2.73-3.04s-0.95-2.83-0.95-4.56
		c0-1.74,0.32-3.27,0.95-4.6s1.53-2.36,2.67-3.11c1.14-0.75,2.48-1.12,4.01-1.12c0.88,0,1.75,0.15,2.61,0.44
		c0.86,0.29,1.64,0.77,2.35,1.43s1.27,1.53,1.69,2.61c0.42,1.08,0.63,2.41,0.63,3.99v1.1h-13.06v-2.25h10.42
		c0-0.96-0.19-1.81-0.57-2.56c-0.38-0.75-0.92-1.34-1.61-1.78c-0.69-0.43-1.51-0.65-2.45-0.65c-1.04,0-1.93,0.26-2.69,0.77
		s-1.33,1.17-1.74,1.99c-0.4,0.82-0.61,1.69-0.61,2.63v1.5c0,1.28,0.22,2.36,0.67,3.25c0.44,0.89,1.06,1.56,1.86,2.02
		c0.79,0.46,1.72,0.69,2.77,0.69c0.68,0,1.3-0.1,1.86-0.29c0.56-0.19,1.04-0.49,1.44-0.88s0.72-0.88,0.94-1.47l2.52,0.71
		c-0.26,0.85-0.71,1.6-1.33,2.25c-0.63,0.64-1.4,1.14-2.32,1.5C228.53,105.95,227.5,106.13,226.35,106.13z"/>
	<path class="st1" d="M239.95,95.58v10.19h-2.6V88.83h2.52v2.65h0.22c0.4-0.86,1-1.55,1.81-2.08c0.81-0.53,1.85-0.79,3.13-0.79
		c1.15,0,2.15,0.23,3.01,0.7c0.86,0.47,1.53,1.17,2.01,2.12c0.48,0.95,0.72,2.14,0.72,3.58v10.77h-2.6V95.18
		c0-1.33-0.35-2.37-1.04-3.12s-1.64-1.12-2.85-1.12c-0.83,0-1.57,0.18-2.22,0.54s-1.16,0.89-1.54,1.58S239.95,94.59,239.95,95.58z"
		/>
	<path class="st1" d="M262.41,106.13c-1.53,0-2.87-0.36-4.02-1.09c-1.15-0.73-2.05-1.75-2.69-3.06s-0.97-2.84-0.97-4.59
		c0-1.77,0.32-3.31,0.97-4.62s1.54-2.34,2.69-3.07c1.15-0.73,2.49-1.09,4.02-1.09c1.53,0,2.87,0.36,4.02,1.09
		c1.15,0.73,2.05,1.75,2.69,3.07c0.64,1.32,0.97,2.86,0.97,4.62c0,1.75-0.32,3.28-0.97,4.59c-0.64,1.31-1.54,2.33-2.69,3.06
		C265.28,105.76,263.94,106.13,262.41,106.13z M262.41,103.79c1.16,0,2.12-0.3,2.87-0.89c0.75-0.6,1.31-1.38,1.67-2.35
		c0.36-0.97,0.54-2.02,0.54-3.16s-0.18-2.19-0.54-3.17c-0.36-0.98-0.92-1.77-1.67-2.37c-0.75-0.6-1.71-0.9-2.87-0.9
		s-2.12,0.3-2.87,0.9c-0.75,0.6-1.31,1.39-1.67,2.37c-0.36,0.98-0.54,2.03-0.54,3.17s0.18,2.18,0.54,3.16
		c0.36,0.97,0.92,1.75,1.67,2.35C260.29,103.49,261.25,103.79,262.41,103.79z"/>
	<path class="st1" d="M286.07,92.62l-2.34,0.66c-0.15-0.39-0.36-0.77-0.65-1.14c-0.28-0.37-0.67-0.68-1.15-0.92
		c-0.49-0.24-1.11-0.36-1.86-0.36c-1.04,0-1.9,0.24-2.59,0.71c-0.69,0.47-1.03,1.08-1.03,1.8c0,0.65,0.24,1.16,0.71,1.53
		c0.47,0.38,1.21,0.69,2.21,0.94l2.52,0.62c1.52,0.37,2.64,0.93,3.39,1.68s1.11,1.72,1.11,2.91c0,0.97-0.28,1.84-0.83,2.6
		c-0.56,0.77-1.33,1.37-2.32,1.81c-0.99,0.44-2.15,0.66-3.46,0.66c-1.73,0-3.16-0.38-4.29-1.13c-1.13-0.75-1.85-1.85-2.15-3.29
		l2.47-0.62c0.24,0.91,0.68,1.6,1.34,2.05s1.52,0.68,2.59,0.68c1.21,0,2.18-0.26,2.9-0.78c0.72-0.52,1.08-1.14,1.08-1.87
		c0-0.59-0.21-1.08-0.62-1.48c-0.41-0.4-1.04-0.7-1.9-0.9l-2.82-0.66c-1.55-0.37-2.69-0.94-3.41-1.72
		c-0.72-0.78-1.09-1.75-1.09-2.92c0-0.96,0.27-1.8,0.81-2.54c0.54-0.74,1.28-1.31,2.22-1.73c0.94-0.42,2-0.63,3.19-0.63
		c1.68,0,3,0.37,3.96,1.1C284.98,90.44,285.66,91.42,286.07,92.62z"/>
	<path class="st1" d="M300.32,105.77h-2.87l8.3-22.6h2.82l8.3,22.6H314l-6.75-19.02h-0.18L300.32,105.77z M301.38,96.95h11.56v2.43
		h-11.56V96.95z"/>
	<path class="st1" d="M321.55,86c-0.51,0-0.94-0.17-1.31-0.52c-0.36-0.35-0.55-0.76-0.55-1.25s0.18-0.9,0.55-1.25
		c0.36-0.35,0.8-0.52,1.31-0.52c0.51,0,0.94,0.17,1.31,0.52c0.36,0.35,0.55,0.76,0.55,1.25s-0.18,0.9-0.55,1.25
		C322.49,85.83,322.06,86,321.55,86z M320.22,105.77V88.83h2.6v16.95H320.22z"/>
	<path class="st1" d="M327.59,105.77V88.83h2.52v2.56h0.18c0.31-0.84,0.87-1.52,1.68-2.04c0.81-0.52,1.72-0.78,2.74-0.78
		c0.19,0,0.43,0,0.72,0.01c0.29,0.01,0.5,0.02,0.65,0.03v2.65c-0.09-0.02-0.29-0.06-0.6-0.1s-0.64-0.07-0.99-0.07
		c-0.82,0-1.56,0.17-2.2,0.51c-0.64,0.34-1.15,0.81-1.52,1.41c-0.37,0.6-0.56,1.28-0.56,2.05v10.72H327.59z"/>
	<path class="st1" d="M345.73,106.13c-1.63,0-3.04-0.36-4.22-1.09c-1.18-0.72-2.09-1.74-2.73-3.04s-0.95-2.83-0.95-4.56
		c0-1.74,0.32-3.27,0.95-4.6s1.53-2.36,2.67-3.11c1.14-0.75,2.48-1.12,4.01-1.12c0.88,0,1.75,0.15,2.61,0.44
		c0.86,0.29,1.64,0.77,2.35,1.43s1.27,1.53,1.69,2.61c0.42,1.08,0.63,2.41,0.63,3.99v1.1h-13.06v-2.25h10.42
		c0-0.96-0.19-1.81-0.57-2.56c-0.38-0.75-0.92-1.34-1.61-1.78c-0.69-0.43-1.51-0.65-2.45-0.65c-1.04,0-1.93,0.26-2.69,0.77
		s-1.33,1.17-1.74,1.99c-0.4,0.82-0.61,1.69-0.61,2.63v1.5c0,1.28,0.22,2.36,0.67,3.25c0.44,0.89,1.06,1.56,1.86,2.02
		c0.79,0.46,1.72,0.69,2.77,0.69c0.68,0,1.3-0.1,1.86-0.29c0.56-0.19,1.04-0.49,1.44-0.88s0.72-0.88,0.94-1.47l2.52,0.71
		c-0.26,0.85-0.71,1.6-1.33,2.25c-0.63,0.64-1.4,1.14-2.32,1.5C347.91,105.95,346.88,106.13,345.73,106.13z"/>
	<path class="st1" d="M368.73,92.62l-2.34,0.66c-0.15-0.39-0.36-0.77-0.65-1.14c-0.28-0.37-0.67-0.68-1.15-0.92
		c-0.49-0.24-1.11-0.36-1.86-0.36c-1.04,0-1.9,0.24-2.59,0.71c-0.69,0.47-1.03,1.08-1.03,1.8c0,0.65,0.24,1.16,0.71,1.53
		c0.47,0.38,1.21,0.69,2.21,0.94l2.52,0.62c1.52,0.37,2.64,0.93,3.39,1.68s1.11,1.72,1.11,2.91c0,0.97-0.28,1.84-0.83,2.6
		c-0.56,0.77-1.33,1.37-2.32,1.81c-0.99,0.44-2.15,0.66-3.46,0.66c-1.73,0-3.16-0.38-4.29-1.13c-1.13-0.75-1.85-1.85-2.15-3.29
		l2.47-0.62c0.24,0.91,0.68,1.6,1.34,2.05s1.52,0.68,2.59,0.68c1.21,0,2.18-0.26,2.9-0.78c0.72-0.52,1.08-1.14,1.08-1.87
		c0-0.59-0.21-1.08-0.62-1.48c-0.41-0.4-1.04-0.7-1.9-0.9L361,98.14c-1.55-0.37-2.69-0.94-3.41-1.72c-0.72-0.78-1.09-1.75-1.09-2.92
		c0-0.96,0.27-1.8,0.81-2.54c0.54-0.74,1.28-1.31,2.22-1.73c0.94-0.42,2-0.63,3.19-0.63c1.68,0,3,0.37,3.96,1.1
		C367.64,90.44,368.32,91.42,368.73,92.62z"/>
</g>
</svg>
