<?xml version="1.0" encoding="utf-8"?>
<!-- Generator: Adobe Illustrator 27.4.0, SVG Export Plug-In . SVG Version: 6.00 Build 0)  -->
<svg version="1.1" id="Capa_1" xmlns="http://www.w3.org/2000/svg" xmlns:xlink="http://www.w3.org/1999/xlink" x="0px" y="0px"
	 viewBox="0 0 595.28 273" style="enable-background:new 0 0 595.28 273;" xml:space="preserve">
<style type="text/css">
	.st0{fill:#FFFFFF;}
</style>
<g>
	<path class="st0" d="M195.36,134.66c0,10.97,0,21.95,0,32.92c0,3.14-0.24,3.4-3.36,3.42c-5.2,0.03-10.4,0.05-15.59,0.03
		c-2.86-0.01-3.31-0.49-3.31-3.32c0-12.62,0.01-25.24,0.02-37.87c0-0.25,0.03-0.5,0-0.74c-0.09-0.86,0.3-2.22-0.75-2.35
		c-1.15-0.15-0.91,1.3-1.2,2.08c-2.29,6.26-3.69,12.78-5.3,19.22c-1.63,6.52-3.71,12.93-4.89,19.56c-0.38,2.16-1.45,3.31-3.56,3.34
		c-4.62,0.06-9.24,0.02-13.86-0.01c-1.16-0.01-2.06-0.44-2.39-1.71c-1.27-4.85-2.59-9.69-3.88-14.55
		c-1.85-6.99-3.69-13.99-5.51-20.99c-0.39-1.51-0.65-3.06-1.01-4.59c-0.13-0.54-0.24-1.23-1.01-1.19c-0.72,0.04-0.88,0.69-0.95,1.26
		c-0.13,1.06-0.25,2.13-0.25,3.2c-0.01,11.71,0,23.43,0.02,35.14c0,2.78-0.45,3.41-3.22,3.46c-5.36,0.09-10.72,0.03-16.09,0.05
		c-2.25,0.01-3.22-0.97-3.22-3.32c0.06-20.13,0.04-40.26,0.04-60.4c0-1.98,0.06-3.96-0.08-5.93c-0.17-2.43,1.09-3.29,3.25-3.31
		c2.14-0.02,4.29,0.03,6.43,0.03c7.34,0,14.69,0.05,22.03-0.03c2.4-0.03,3.93,0.67,4.39,3.25c0.88,5.02,2.42,9.9,3.21,14.96
		c0.66,4.21,1.89,8.33,3.01,12.45c0.63,2.33,0.63,4.74,1.18,7.07c0.16,0.69,0.1,1.65,1.05,1.76c0.86,0.09,1.25-0.77,1.58-1.38
		c0.42-0.78,0.76-1.68,0.86-2.55c0.31-2.79,1.13-5.48,1.62-8.21c1.45-8.11,3.71-16.04,4.95-24.18c0.38-2.52,1.83-3.08,3.93-3.09
		c6.19-0.02,12.38-0.03,18.56-0.05c3.3-0.01,6.6-0.01,9.9-0.01c3.08,0,3.41,0.3,3.41,3.41c0.02,11.06,0.01,22.11,0.01,33.17
		C195.37,134.66,195.36,134.66,195.36,134.66z"/>
	<path class="st0" d="M353.58,134.48c0-10.97,0.04-21.93-0.03-32.9c-0.01-2.24,0.69-3.46,3.07-3.44
		c15.83,0.13,31.66-0.46,47.48,0.35c6.08,0.31,10.77,3.09,13.74,8.27c1.55,2.7,1.77,6.02,1.82,9.12c0.1,5.97-1.18,11.47-6.59,15.13
		c-0.8,0.54-1.69,1.4-1.62,2.36c0.09,1.28,1.52,0.96,2.37,1.32c4.99,2.07,7.98,6.02,8.63,11.13c0.62,4.83,0.64,9.75-1.3,14.59
		c-1.68,4.2-4.65,6.52-8.44,8.4c-4.08,2.03-8.45,2.14-12.79,2.17c-14.27,0.1-28.53,0.05-42.8,0.03c-3.1-0.01-3.58-0.54-3.59-3.63
		c-0.01-10.97,0-21.93,0-32.9C353.55,134.48,353.56,134.48,353.58,134.48z M385.99,153.87c0-0.01,0-0.02,0-0.03
		c1.8,0,3.61,0.06,5.41-0.01c3.27-0.13,5.44-2.17,5.74-5.31c0.37-3.9-0.86-5.98-4.43-6.71c-4.13-0.84-8.35-0.33-12.53-0.23
		c-1.71,0.04-2.14,1.62-2.18,3.09c-0.06,2.13-0.04,4.27,0.03,6.41c0.05,1.75,1.01,2.74,2.79,2.78
		C382.54,153.9,384.27,153.87,385.99,153.87z M384.96,127.01c2.05-0.16,4.13-0.21,6.16-0.52c2.65-0.41,4.51-2.9,4.5-5.72
		c-0.01-3.32-1.55-5.33-4.65-5.69c-2.37-0.28-4.77-0.35-7.16-0.39c-5.79-0.1-5.83-0.08-5.78,5.61
		C378.1,126.88,376.94,127.3,384.96,127.01z"/>
	<path class="st0" d="M270.96,170.96c-3.05,0-6.11-0.14-9.15,0.04c-2.57,0.15-4.29-0.66-5.08-3.17c-0.32-1.02-0.73-2.01-0.99-3.04
		c-0.93-3.64-2-4.48-5.64-4.48c-5.11,0-10.23,0.07-15.34-0.1c-2.74-0.09-4.11,1.2-4.83,3.61c-2.15,7.17-2.16,7.17-9.54,7.19
		c-5.28,0.01-10.56,0.02-15.84-0.02c-3.45-0.02-4.01-0.8-2.72-4.03c1.36-3.43,2.88-6.79,4.34-10.18c2.38-5.5,4.79-10.99,7.14-16.51
		c3.93-9.23,7.84-18.46,11.72-27.71c1.66-3.95,3.29-7.9,4.81-11.9c0.65-1.71,1.73-2.55,3.5-2.56c6.84-0.01,13.69-0.03,20.53,0.01
		c2.16,0.01,2.83,1.76,3.48,3.36c2.58,6.39,5.14,12.79,7.64,19.21c2.39,6.12,4.65,12.29,7.06,18.4c2.17,5.5,4.48,10.94,6.7,16.42
		c1.7,4.19,3.43,8.37,5.03,12.59c0.77,2.03,0.06,2.91-2.19,2.93c-3.55,0.04-7.09,0.01-10.64,0.01
		C270.96,171.02,270.96,170.99,270.96,170.96z M242.37,144.72c1.24,0,2.47,0.04,3.71-0.01c2.88-0.1,3.52-1.12,2.47-3.78
		c-0.33-0.83-0.48-1.74-0.77-2.59c-1.47-4.35-2.28-8.91-4.11-13.14c-0.19-0.44-0.32-1.02-0.92-1.02c-0.63,0-0.7,0.6-0.85,1.05
		c-1.41,4.45-2.95,8.87-4.19,13.37C236.1,144.53,236.2,144.56,242.37,144.72z"/>
	<path class="st0" d="M496.14,171c-3.13,0-6.27,0.02-9.4-0.01c-3.32-0.03-4.12-0.62-5.21-3.77c-0.24-0.7-0.35-1.44-0.56-2.15
		c-1.27-4.24-2.07-4.8-6.43-4.78c-4.95,0.02-9.9,0.05-14.84-0.07c-2.36-0.06-3.69,1.02-4.45,3.12c-0.64,1.78-1.48,3.5-1.98,5.31
		c-0.49,1.8-1.55,2.27-3.25,2.27c-7.01-0.02-14.01,0.08-21.02,0.07c-2.61,0-3.2-0.73-2.23-3.2c2.05-5.19,4.31-10.29,6.49-15.42
		c2.56-6.05,5.11-12.11,7.68-18.16c3.76-8.85,7.62-17.66,11.26-26.55c0.93-2.28,2.07-4.48,2.81-6.82c0.55-1.74,1.55-2.68,3.36-2.69
		c6.84-0.03,13.68-0.07,20.53-0.03c2.7,0.02,3.16,2.45,3.86,4.24c3.19,8.08,6.52,16.11,9.66,24.21c2.28,5.88,4.78,11.68,6.89,17.64
		c2.09,5.88,4.62,11.61,6.97,17.4c0.86,2.14,1.8,4.25,2.6,6.41c0.76,2.05,0.16,2.93-2.11,2.98C503.24,171.06,499.69,171,496.14,171z
		 M466.57,144.59c2.21,0,3.96,0.15,5.66-0.04c1.72-0.2,2.24-1.26,1.76-3.03c-0.95-3.47-2.46-6.75-3.09-10.33
		c-0.34-1.93-1.11-3.78-1.72-5.66c-0.18-0.54-0.41-1.16-1.1-1.17c-0.75-0.01-0.86,0.68-1.02,1.21c-1.46,4.6-3.5,9.04-4.33,13.82
		c-0.28,1.61-2.52,3.13-0.92,4.7C463.13,145.39,465.28,144.39,466.57,144.59z"/>
	<path class="st0" d="M290.06,134.29c0-10.97,0-21.93,0-32.9c0-2.95,0.29-3.26,3.26-3.27c6.02-0.03,12.04-0.05,18.05-0.03
		c2.92,0.01,3.63,0.85,3.62,3.7c-0.03,15.74-0.05,31.48-0.01,47.23c0.01,3.71,0.54,4.08,4.17,4.06c7.42-0.03,14.84-0.02,22.26,0.02
		c2.7,0.01,3.63,0.82,3.71,3.49c0.11,3.95,0.03,7.91,0.03,11.87c0,1.63-0.91,2.4-2.44,2.53c-0.66,0.06-1.32,0.04-1.98,0.04
		c-15.58,0-31.16,0.01-46.75,0.01c-3.8,0-3.91-0.13-3.91-3.84C290.07,156.22,290.06,145.26,290.06,134.29
		C290.06,134.29,290.06,134.29,290.06,134.29z"/>
</g>
</svg>
