<?xml version="1.0" encoding="utf-8"?>
<!-- Generator: Adobe Illustrator 28.0.0, SVG Export Plug-In . SVG Version: 6.00 Build 0)  -->
<svg version="1.1" id="Capa_1" xmlns="http://www.w3.org/2000/svg" xmlns:xlink="http://www.w3.org/1999/xlink" x="0px" y="0px"
	 viewBox="0 0 16 16" style="enable-background:new 0 0 16 16;" xml:space="preserve">
<style type="text/css">
	.st0{fill:#B92A2A;}
	.st1{fill:#FFFFFF;}
</style>
<circle class="st0" cx="8" cy="8" r="8"/>
<path class="st1" d="M8,2.9c-1.4,0-1.5,0-2.1,0C5.4,3,5,3.1,4.7,3.2C4.3,3.3,4,3.5,3.8,3.8C3.5,4,3.3,4.3,3.2,4.7C3.1,5,3,5.4,3,5.9
	c0,0.5,0,0.7,0,2.1c0,1.4,0,1.5,0,2.1c0,0.5,0.1,0.9,0.2,1.2c0.1,0.3,0.3,0.6,0.6,0.9c0.3,0.3,0.6,0.5,0.9,0.6C5,12.9,5.4,13,5.9,13
	c0.5,0,0.7,0,2.1,0s1.5,0,2.1,0c0.5,0,0.9-0.1,1.2-0.2c0.3-0.1,0.6-0.3,0.9-0.6c0.3-0.3,0.5-0.6,0.6-0.9c0.1-0.3,0.2-0.7,0.2-1.2
	c0-0.5,0-0.7,0-2.1s0-1.5,0-2.1c0-0.5-0.1-0.9-0.2-1.2c-0.1-0.3-0.3-0.6-0.6-0.9c-0.3-0.3-0.6-0.5-0.9-0.6C11,3.1,10.6,3,10.1,3
	C9.5,2.9,9.4,2.9,8,2.9L8,2.9L8,2.9z M7.5,3.8H8c1.4,0,1.5,0,2,0c0.5,0,0.8,0.1,0.9,0.2c0.2,0.1,0.4,0.2,0.6,0.4
	c0.2,0.2,0.3,0.3,0.4,0.6C12,5.2,12.1,5.5,12.1,6c0,0.5,0,0.7,0,2s0,1.5,0,2c0,0.5-0.1,0.8-0.2,0.9c-0.1,0.2-0.2,0.4-0.4,0.6
	c-0.2,0.2-0.3,0.3-0.6,0.4c-0.2,0.1-0.4,0.2-0.9,0.2c-0.5,0-0.7,0-2,0s-1.5,0-2,0c-0.5,0-0.8-0.1-0.9-0.2c-0.2-0.1-0.4-0.2-0.6-0.4
	c-0.2-0.2-0.3-0.4-0.4-0.6C4,10.8,3.9,10.5,3.9,10c0-0.5,0-0.7,0-2c0-1.4,0-1.5,0-2C3.9,5.5,4,5.2,4.1,5c0.1-0.2,0.2-0.4,0.4-0.6
	C4.6,4.3,4.8,4.1,5,4.1C5.2,4,5.5,3.9,6,3.9C6.4,3.9,6.6,3.8,7.5,3.8C7.5,3.8,7.5,3.8,7.5,3.8z M10.7,4.7c-0.3,0-0.6,0.3-0.6,0.6
	c0,0.3,0.3,0.6,0.6,0.6l0,0c0.3,0,0.6-0.3,0.6-0.6C11.3,5,11,4.7,10.7,4.7z M8,5.4C6.6,5.4,5.4,6.5,5.4,8s1.1,2.6,2.6,2.6
	c0,0,0.1,0,0.1,0c1.4,0,2.6-1.2,2.6-2.6C10.5,6.6,9.4,5.4,8,5.4z M8,6.3c0.9,0,1.7,0.8,1.7,1.7c0,0.9-0.8,1.7-1.7,1.7c0,0,0,0,0,0
	C7.1,9.7,6.3,8.9,6.3,8S7.1,6.3,8,6.3"/>
</svg>
