<?xml version="1.0" encoding="utf-8"?>
<!-- Generator: Adobe Illustrator 28.0.0, SVG Export Plug-In . SVG Version: 6.00 Build 0)  -->
<svg version="1.1" id="Capa_1" xmlns="http://www.w3.org/2000/svg" xmlns:xlink="http://www.w3.org/1999/xlink" x="0px" y="0px"
	 viewBox="0 0 16 16" style="enable-background:new 0 0 16 16;" xml:space="preserve">
<style type="text/css">
	.st0{fill:#B92A2A;}
	.st1{fill:#FFFFFF;}
</style>
<circle class="st0" cx="8" cy="8" r="8"/>
<path class="st1" d="M5.2,3.8C5.1,3.6,4.8,3.6,4.6,3.7c0,0,0,0,0,0L4,4.4C3.6,4.7,3.5,5.1,3.7,5.5c0.6,1.6,1.5,3,2.6,4.2
	c1.2,1.2,2.6,2.1,4.2,2.6c0.4,0.1,0.8,0,1.1-0.3l0.7-0.7c0.2-0.2,0.2-0.4,0-0.6c0,0,0,0,0,0l-1.5-1.1c-0.1-0.1-0.2-0.1-0.4-0.1
	L9,9.9c-0.4,0.1-0.8,0-1-0.3L6.4,8C6.1,7.8,6,7.4,6.1,7l0.3-1.4c0-0.1,0-0.3-0.1-0.4L5.2,3.8z M4.1,3.3c0.4-0.4,1.1-0.4,1.6,0
	c0,0,0.1,0.1,0.1,0.1l1.1,1.5c0.2,0.3,0.3,0.6,0.2,0.9L6.8,7.2c0,0.1,0,0.3,0.1,0.4l1.6,1.6c0.1,0.1,0.3,0.1,0.4,0.1l1.4-0.3
	c0.3-0.1,0.7,0,0.9,0.2l1.5,1.1c0.5,0.4,0.6,1.2,0.1,1.7l-0.7,0.7c-0.5,0.5-1.2,0.7-1.8,0.4c-1.7-0.6-3.2-1.5-4.4-2.8
	C4.6,8.9,3.6,7.4,3,5.7C2.8,5.1,3,4.4,3.5,3.9L4.1,3.3L4.1,3.3z"/>
</svg>
