<?xml version="1.0" encoding="utf-8"?>
<!-- Generator: Adobe Illustrator 28.0.0, SVG Export Plug-In . SVG Version: 6.00 Build 0)  -->
<svg version="1.1" id="Capa_1" xmlns="http://www.w3.org/2000/svg" xmlns:xlink="http://www.w3.org/1999/xlink" x="0px" y="0px"
	 viewBox="0 0 16 16" style="enable-background:new 0 0 16 16;" xml:space="preserve">
<style type="text/css">
	.st0{fill:#B92A2A;}
	.st1{fill:#FFFFFF;}
</style>
<circle class="st0" cx="8" cy="8" r="8"/>
<path class="st1" d="M6.5,12.9c4.1,0,6.4-3.4,6.4-6.4c0-0.1,0-0.2,0-0.3C13.4,6,13.7,5.6,14,5.1c-0.4,0.2-0.8,0.3-1.3,0.4
	c0.5-0.3,0.8-0.7,1-1.2c-0.4,0.3-0.9,0.4-1.4,0.5C11.5,3.9,10,3.8,9.1,4.7C8.6,5.2,8.3,6,8.5,6.8C6.7,6.7,5,5.9,3.9,4.5
	c-0.6,1-0.3,2.3,0.7,3c-0.4,0-0.7-0.1-1-0.3v0c0,1.1,0.8,2,1.8,2.2C5.2,9.5,5,9.5,4.8,9.5c-0.1,0-0.3,0-0.4,0
	C4.6,10.4,5.5,11,6.4,11c-0.8,0.6-1.8,1-2.8,1c-0.2,0-0.4,0-0.5,0C4.1,12.6,5.3,12.9,6.5,12.9"/>
</svg>
