<?xml version="1.0" encoding="utf-8"?>
<!-- Generator: Adobe Illustrator 28.0.0, SVG Export Plug-In . SVG Version: 6.00 Build 0)  -->
<svg version="1.1" id="Capa_1" xmlns="http://www.w3.org/2000/svg" xmlns:xlink="http://www.w3.org/1999/xlink" x="0px" y="0px"
	 viewBox="0 0 16 16" style="enable-background:new 0 0 16 16;" xml:space="preserve">
<style type="text/css">
	.st0{fill:#B92A2A;}
	.st1{fill:#FFFFFF;}
</style>
<circle class="st0" cx="7.9" cy="8" r="8"/>
<path class="st1" d="M11.4,4.5C10.5,3.6,9.3,3.1,8,3.1C5.3,3.1,3.1,5.3,3.1,8c0,0.9,0.2,1.7,0.7,2.4l-0.7,2.5l2.6-0.7
	c0.7,0.4,1.5,0.6,2.3,0.6h0c2.7,0,4.9-2.2,4.9-4.9C12.9,6.7,12.4,5.4,11.4,4.5L11.4,4.5z M8,12c-0.7,0-1.4-0.2-2.1-0.6l-0.1-0.1
	l-1.5,0.4l0.4-1.5l-0.1-0.2C4.1,9.5,3.9,8.7,3.9,8c0-2.2,1.8-4.1,4.1-4.1c1.1,0,2.1,0.4,2.9,1.2C11.6,5.8,12.1,6.9,12,8
	C12,10.2,10.2,12,8,12z M10.2,9c-0.1-0.1-0.7-0.4-0.8-0.4c-0.1,0-0.2-0.1-0.3,0.1C9,8.8,8.8,9,8.7,9.1c-0.1,0.1-0.1,0.1-0.3,0
	C8.3,9.1,7.9,9,7.5,8.5C7.1,8.2,6.9,7.8,6.8,7.7c-0.1-0.1,0-0.2,0.1-0.2C6.9,7.4,7,7.3,7,7.2C7.1,7.2,7.1,7.1,7.1,7
	c0-0.1,0-0.2,0-0.2c0-0.1-0.3-0.7-0.4-0.9C6.7,5.7,6.6,5.7,6.5,5.7c-0.1,0-0.2,0-0.2,0C6.1,5.7,6,5.8,5.9,5.8C5.8,6,5.5,6.3,5.5,6.9
	S5.9,8.1,6,8.1C6.1,8.2,6.9,9.4,8.1,10c0.3,0.1,0.5,0.2,0.7,0.3c0.3,0.1,0.6,0.1,0.8,0c0.2,0,0.7-0.3,0.8-0.6
	c0.1-0.3,0.1-0.5,0.1-0.6C10.4,9.1,10.3,9,10.2,9z"/>
</svg>
