<?xml version="1.0" encoding="utf-8"?>
<!-- Generator: Adobe Illustrator 28.0.0, SVG Export Plug-In . SVG Version: 6.00 Build 0)  -->
<svg version="1.1" id="Capa_1" xmlns="http://www.w3.org/2000/svg" xmlns:xlink="http://www.w3.org/1999/xlink" x="0px" y="0px"
	 viewBox="0 0 16 16" style="enable-background:new 0 0 16 16;" xml:space="preserve">
<style type="text/css">
	.st0{fill:#B92A2A;}
	.st1{fill:#FFFFFF;}
</style>
<circle class="st0" cx="8" cy="8" r="8"/>
<path class="st1" d="M8,4.5L8,4.5c0.6,0,3.1,0,3.8,0.2c0.4,0.1,0.8,0.4,0.9,0.9c0.1,0.2,0.1,0.5,0.1,0.9l0,0.1l0,0.2l0,0.1
	c0,0.6,0,1.1,0,1.2v0c0,0.1,0,0.7-0.1,1.3l0,0.1l0,0.1c0,0.4-0.1,0.7-0.1,1c-0.1,0.4-0.4,0.8-0.9,0.9c-0.7,0.2-3.4,0.2-3.8,0.2H8
	c-0.2,0-1,0-1.8,0l-0.1,0l-0.1,0l-0.1,0l-0.1,0c-0.7,0-1.3-0.1-1.6-0.2c-0.4-0.1-0.8-0.4-0.9-0.9c-0.1-0.3-0.1-0.6-0.1-1l0-0.1
	l0-0.1c0-0.4,0-0.8-0.1-1.3V8c0-0.1,0-0.6,0-1.1l0-0.1l0,0l0-0.1l0-0.2l0-0.1c0-0.3,0.1-0.6,0.1-0.9c0.1-0.4,0.4-0.8,0.9-0.9
	c0.3-0.1,1-0.1,1.6-0.2l0.1,0l0.1,0l0.1,0l0.1,0c0.6,0,1.2,0,1.8,0L8,4.5L8,4.5z M7,6.5v3L9.6,8L7,6.5z"/>
</svg>
